<svg xmlns="http://www.w3.org/2000/svg" viewBox="0 0 884 1102" font-family="Segoe UI, Arial, sans-serif">
<rect width="884" height="1102" fill="#F4F1EA"/>
<path d="M1252.9,93.5 L1364.3,-38.7" stroke="#DDD8CC" stroke-width="7" fill="none" stroke-linecap="round"/>
<path d="M1164.6,-273.8 L1195.6,-246.2 L1273.6,-154.9 L1290.9,-146.1 L1311.3,-145.7 L1363.3,-170.8" stroke="#DDD8CC" stroke-width="6" fill="none" stroke-linecap="round"/>
<path d="M131.8,765.3 L110.6,768.6 L18.2,782.6 L-190.3,814.2 L-215.8,818.1" stroke="#DDD8CC" stroke-width="7" fill="none" stroke-linecap="round"/>
<path d="M18.2,782.6 L13.5,764.3 L-56.1,334.1" stroke="#DDD8CC" stroke-width="7" fill="none" stroke-linecap="round"/>
<path d="M-633.6,421.2 L-631.1,441.1 L-603.7,658.8" stroke="#DDD8CC" stroke-width="7" fill="none" stroke-linecap="round"/>
<path d="M152.2,314.6 L178.5,304.8 L189.3,300.0 L232.4,281.9" stroke="#DDD8CC" stroke-width="6" fill="none" stroke-linecap="round"/>
<path d="M625.9,1233.2 L662.8,1217.4 L704.3,1204.1 L741.9,1199.6 L1483.8,1210.7" stroke="#DDD8CC" stroke-width="7" fill="none" stroke-linecap="round"/>
<path d="M423.3,526.5 L450.0,516.4 L1299.8,190.2 L1324.0,180.9" stroke="#DDD8CC" stroke-width="7" fill="none" stroke-linecap="round"/>
<path d="M240.0,90.5 L266.0,82.3 L646.4,-8.8 L947.0,-83.1 L961.8,-89.3 L981.3,-100.0 L991.2,-105.5" stroke="#DDD8CC" stroke-width="7" fill="none" stroke-linecap="round"/>
<path d="M-215.8,818.1 L-197.9,907.3 L-226.8,910.9 L-604.5,956.9" stroke="#DDD8CC" stroke-width="7" fill="none" stroke-linecap="round"/>
<path d="M-695.9,1551.0 L-669.7,1544.0 L-26.2,1362.9 L5.7,1352.4 L32.8,1346.2 L194.3,1300.5 L226.2,1291.4 L352.8,1255.4 L502.6,1212.9 L520.9,1210.6" stroke="#DDD8CC" stroke-width="6" fill="none" stroke-linecap="round"/>
<path d="M649.4,1067.7 L747.4,1042.4 L931.8,994.6" stroke="#DDD8CC" stroke-width="7" fill="none" stroke-linecap="round"/>
<path d="M67.3,-115.6 L94.7,-124.4 L112.6,-157.4 L117.1,-206.3" stroke="#DDD8CC" stroke-width="12" fill="none" stroke-linecap="round"/>
<path d="M232.4,281.9 L270.4,268.0 L307.7,254.4" stroke="#DDD8CC" stroke-width="6" fill="none" stroke-linecap="round"/>
<path d="M452.0,812.8 L427.2,869.0 L399.4,913.9" stroke="#DDD8CC" stroke-width="6" fill="none" stroke-linecap="round"/>
<path d="M543.6,1263.7 L568.2,1255.6 L582.7,1250.9 L587.9,1248.7 L625.9,1233.2" stroke="#DDD8CC" stroke-width="7" fill="none" stroke-linecap="round"/>
<path d="M7.5,1345.3 L5.7,1352.4 L-1.0,1378.4 L-8.4,1409.5 L-67.4,1686.1 L-64.1,1730.5 L-51.7,1771.9 L-27.4,1831.0 L-15.8,1856.3 L-6.9,1878.5 L49.5,2018.7 L80.3,2111.2 L84.4,2164.6 L70.5,2242.4 L52.7,2341.8 L46.9,2374.9 L42.1,2401.5 L33.8,2448.1 L9.1,2586.8 L4.7,2611.3" stroke="#DDD8CC" stroke-width="7" fill="none" stroke-linecap="round"/>
<path d="M352.8,1255.4 L370.9,1319.0 L371.0,1378.9" stroke="#E6E2D8" stroke-width="3" fill="none" stroke-linecap="round"/>
<path d="M194.3,1300.5 L201.7,1326.1 L261.7,1533.3" stroke="#E6E2D8" stroke-width="3" fill="none" stroke-linecap="round"/>
<path d="M379.5,1539.5 L370.2,1505.4 L294.3,1526.4" stroke="#E6E2D8" stroke-width="3" fill="none" stroke-linecap="round"/>
<path d="M300.6,1558.6 L379.5,1539.5" stroke="#E6E2D8" stroke-width="3" fill="none" stroke-linecap="round"/>
<path d="M303.7,1552.0 L304.6,1544.9 L303.2,1537.7 L299.7,1531.4 L294.3,1526.4 L292.8,1525.5 L286.2,1523.1 L279.1,1522.7 L272.3,1524.3 L266.3,1528.0 L261.7,1533.3 L261.0,1534.4 L258.5,1541.4 L258.3,1548.8 L260.5,1555.9 L264.8,1562.0 L270.9,1566.3 L272.1,1566.9 L279.6,1568.7 L287.3,1568.0 L294.4,1564.9 L300.0,1559.6 L300.6,1558.6 L303.7,1552.0" stroke="#E6E2D8" stroke-width="3" fill="none" stroke-linecap="round"/>
<path d="M292.8,1525.5 L233.4,1316.4 L226.2,1291.4" stroke="#E6E2D8" stroke-width="3" fill="none" stroke-linecap="round"/>
<path d="M261.0,1534.4 L174.3,1555.9 L183.3,1590.1 L270.9,1566.3" stroke="#E6E2D8" stroke-width="3" fill="none" stroke-linecap="round"/>
<path d="M379.5,1539.5 L437.2,1527.6 L467.3,1520.7 L532.4,1501.4 L546.7,1475.1 L623.4,1463.1" stroke="#E6E2D8" stroke-width="3" fill="none" stroke-linecap="round"/>
<path d="M68.4,-326.3 L108.0,-341.7 L436.1,-469.3 L589.4,-528.9 L636.9,-551.3 L650.2,-556.7 L683.6,-562.9" stroke="#DDD8CC" stroke-width="12" fill="none" stroke-linecap="round"/>
<path d="M-252.3,611.5 L-303.2,361.8" stroke="#DDD8CC" stroke-width="7" fill="none" stroke-linecap="round"/>
<path d="M-603.7,658.8 L-527.7,643.4" stroke="#DDD8CC" stroke-width="7" fill="none" stroke-linecap="round"/>
<path d="M-1216.1,530.6 L-1197.1,526.8 L-1050.4,498.7 L-1043.1,497.3 L-1025.3,493.8 L-997.8,489.1 L-633.6,421.2 L-303.2,361.8 L-56.1,334.1 L152.2,314.6" stroke="#DDD8CC" stroke-width="6" fill="none" stroke-linecap="round"/>
<path d="M-215.8,818.1 L-252.3,611.5" stroke="#DDD8CC" stroke-width="7" fill="none" stroke-linecap="round"/>
<path d="M-603.7,658.8 L-592.2,742.9" stroke="#DDD8CC" stroke-width="7" fill="none" stroke-linecap="round"/>
<path d="M-527.7,643.4 L-500.2,652.5 L-272.1,615.1 L-252.3,611.5" stroke="#DDD8CC" stroke-width="7" fill="none" stroke-linecap="round"/>
<path d="M667.2,-590.4 L641.4,-580.0 L426.8,-490.6 L113.4,-367.3 L101.2,-362.5 L60.3,-346.4" stroke="#DDD8CC" stroke-width="12" fill="none" stroke-linecap="round"/>
<path d="M683.6,-562.9 L705.7,-570.3" stroke="#DDD8CC" stroke-width="12" fill="none" stroke-linecap="round"/>
<path d="M1164.6,-273.8 L1167.5,-284.3 L1189.5,-303.5 L1223.1,-332.9" stroke="#E6E2D8" stroke-width="3" fill="none" stroke-linecap="round"/>
<path d="M1330.8,970.4 L1720.2,861.4 L1787.1,842.8" stroke="#DDD8CC" stroke-width="7" fill="none" stroke-linecap="round"/>
<path d="M1866.8,228.5 L1843.6,239.6 L1483.0,411.2 L1047.1,577.6 L560.8,763.2 L551.3,766.8 L529.8,775.1 L492.8,785.9 L484.9,788.2 L452.0,812.8" stroke="#DDD8CC" stroke-width="7" fill="none" stroke-linecap="round"/>
<path d="M1189.5,-303.5 L1293.4,-169.2 L1311.3,-145.7 L1363.3,-170.8 L1223.1,-332.9 L1189.5,-303.5" stroke="#E6E2D8" stroke-width="3" fill="none" stroke-linecap="round"/>
<path d="M1364.3,-38.7 L1429.3,41.0 L1493.5,118.2" stroke="#DDD8CC" stroke-width="7" fill="none" stroke-linecap="round"/>
<path d="M-72.6,-241.5 L-25.1,-125.6" stroke="#DDD8CC" stroke-width="12" fill="none" stroke-linecap="round"/>
<path d="M60.3,-346.4 L49.3,-374.0 L-171.5,-914.3 L-176.8,-927.1 L-188.8,-957.7 L-205.5,-999.4 L-276.3,-1176.5 L-485.5,-1692.5 L-486.6,-1694.8 L-491.1,-1706.9 L-496.9,-1721.4 L-509.8,-1751.6 L-678.2,-2165.8 L-709.1,-2154.8 L-714.3,-2152.9 L-758.6,-2137.2" stroke="#DDD8CC" stroke-width="7" fill="none" stroke-linecap="round"/>
<path d="M157.5,326.4 L399.4,913.9 L436.4,1004.3 L520.9,1210.6 L543.6,1263.7 L558.0,1299.6 L623.4,1463.1 L708.1,1667.9 L719.3,1694.8" stroke="#DDD8CC" stroke-width="7" fill="none" stroke-linecap="round"/>
<path d="M68.4,-326.3 L60.3,-346.4" stroke="#DDD8CC" stroke-width="12" fill="none" stroke-linecap="round"/>
<path d="M117.1,-206.3 L68.4,-326.3" stroke="#DDD8CC" stroke-width="12" fill="none" stroke-linecap="round"/>
<path d="M-13.2,-314.5 L-48.9,-299.1 L-64.0,-280.0 L-72.6,-241.5" stroke="#DDD8CC" stroke-width="12" fill="none" stroke-linecap="round"/>
<path d="M-13.2,-314.5 L-43.1,-387.2 L-49.7,-403.1 L-210.9,-787.3 L-248.7,-879.0 L-259.6,-905.4 L-272.3,-937.3" stroke="#DDD8CC" stroke-width="12" fill="none" stroke-linecap="round"/>
<path d="M60.3,-346.4 L3.7,-321.9 L-13.2,-314.5" stroke="#DDD8CC" stroke-width="12" fill="none" stroke-linecap="round"/>
<path d="M667.2,-590.4 L683.6,-562.9 L693.1,-546.3 L784.5,-380.2 L978.6,-122.5 L991.2,-105.5 L1006.7,-84.5 L1039.1,-51.2 L1175.5,35.4 L1252.9,93.5 L1309.8,163.4 L1324.0,180.9 L1350.7,219.6 L1483.0,411.2 L1538.8,561.7 L1559.6,588.7 L1678.0,723.6 L1696.0,744.8 L1787.1,842.8 L1854.5,913.5 L2090.4,1164.6 L2120.6,1193.4 L2138.7,1210.9" stroke="#DDD8CC" stroke-width="6" fill="none" stroke-linecap="round"/>
<path d="M1364.3,-38.7 L1354.7,-48.0 L1298.4,-121.4 L1294.1,-131.4 L1290.9,-146.1" stroke="#E6E2D8" stroke-width="3" fill="none" stroke-linecap="round"/>
<path d="M107.3,105.3 L176.6,268.0 L189.3,300.0 L198.9,322.2 L394.4,790.3 L427.2,869.0 L582.7,1250.9 L596.3,1285.1 L740.8,1634.3 L740.9,1688.6 L775.4,1717.8 L897.0,2008.3 L906.1,2030.1 L922.4,2069.0 L926.0,2077.2 L935.2,2099.3 L1091.2,2470.7 L1096.8,2483.8 L1109.7,2518.2" stroke="#E6E2D8" stroke-width="3" fill="none" stroke-linecap="round"/>
<path d="M-624.1,-1672.3 L-611.0,-1641.2 L-335.0,-964.0 L-319.4,-925.8 L-307.0,-892.9 L-177.4,-585.1 L-87.4,-371.0 L-75.0,-341.6 L-99.2,-295.0" stroke="#E6E2D8" stroke-width="3" fill="none" stroke-linecap="round"/>
<path d="M1324.0,180.9 L1345.8,172.8 L1493.5,118.2 L1598.7,75.5 L1769.6,7.3 L1791.2,-1.4 L2100.1,-123.6" stroke="#DDD8CC" stroke-width="7" fill="none" stroke-linecap="round"/>
<path d="M232.4,281.9 L220.1,252.2 L217.3,245.3 L155.8,97.3 L95.7,-46.5 L87.4,-66.5 L67.3,-115.6" stroke="#DDD8CC" stroke-width="12" fill="none" stroke-linecap="round"/>
<path d="M452.0,812.8 L435.1,772.1 L424.9,747.8 L393.5,670.3 L317.4,487.6 L247.8,318.4 L242.8,306.4 L232.4,281.9" stroke="#DDD8CC" stroke-width="12" fill="none" stroke-linecap="round"/>
<path d="M375.9,-501.8 L355.5,-552.2 L342.8,-583.8 L334.0,-580.4 L332.1,-580.0 L331.5,-581.5 L330.7,-584.1 L338.7,-587.9 L348.0,-592.0 L344.7,-599.9 L365.1,-607.8 L366.5,-604.4 L386.6,-612.7 L385.0,-616.1 L404.8,-624.3 L407.8,-616.1 L418.3,-620.2 L442.3,-558.6 L448.3,-561.6 L451.4,-551.4 L455.5,-553.3 L458.3,-546.9 L464.3,-549.2 L465.1,-546.5 L475.3,-551.1 L479.5,-542.0 L415.9,-515.7 L375.9,-501.8" stroke="#E6E2D8" stroke-width="3" fill="none" stroke-linecap="round"/>
<path d="M427.8,-446.0 L443.5,-452.3 L462.5,-460.0 L471.3,-439.5 L438.1,-425.5 L427.8,-446.0" stroke="#E6E2D8" stroke-width="3" fill="none" stroke-linecap="round"/>
<path d="M1164.6,-273.8 L1141.7,-292.8 L1128.8,-309.8 L1061.4,-430.5" stroke="#DDD8CC" stroke-width="6" fill="none" stroke-linecap="round"/>
<path d="M978.6,-122.5 L1150.6,-260.4 L1164.6,-273.8" stroke="#DDD8CC" stroke-width="7" fill="none" stroke-linecap="round"/>
<path d="M843.5,1661.8 L818.6,1600.1 L676.7,1253.9 L670.7,1237.0 L662.8,1217.4 L649.1,1184.6 L498.1,820.4 L484.9,788.2 L471.4,755.5 L302.6,346.1 L280.6,292.9 L270.4,268.0 L258.5,238.2 L184.7,69.1" stroke="#E6E2D8" stroke-width="3" fill="none" stroke-linecap="round"/>
<path d="M183.8,94.4 L172.8,68.6" stroke="#E6E2D8" stroke-width="3" fill="none" stroke-linecap="round"/>
<path d="M188.8,29.4 L169.0,-20.7" stroke="#E6E2D8" stroke-width="3" fill="none" stroke-linecap="round"/>
<path d="M82.7,73.2 L68.4,37.8" stroke="#E6E2D8" stroke-width="3" fill="none" stroke-linecap="round"/>
<path d="M179.0,94.0 L194.6,130.9" stroke="#E6E2D8" stroke-width="3" fill="none" stroke-linecap="round"/>
<path d="M178.0,33.4 L157.9,-16.2" stroke="#E6E2D8" stroke-width="3" fill="none" stroke-linecap="round"/>
<path d="M231.9,75.9 L244.9,107.4" stroke="#E6E2D8" stroke-width="3" fill="none" stroke-linecap="round"/>
<path d="M183.6,31.3 L164.2,-18.7" stroke="#E6E2D8" stroke-width="3" fill="none" stroke-linecap="round"/>
<path d="M88.6,71.0 L74.8,35.7" stroke="#E6E2D8" stroke-width="3" fill="none" stroke-linecap="round"/>
<path d="M94.4,68.8 L80.5,33.8" stroke="#E6E2D8" stroke-width="3" fill="none" stroke-linecap="round"/>
<path d="M237.4,74.0 L250.8,105.0" stroke="#E6E2D8" stroke-width="3" fill="none" stroke-linecap="round"/>
<path d="M184.8,92.0 L200.0,128.9" stroke="#E6E2D8" stroke-width="3" fill="none" stroke-linecap="round"/>
<path d="M67.3,-115.6 L52.7,-151.7 L1.6,-278.0 L-13.2,-314.5" stroke="#DDD8CC" stroke-width="12" fill="none" stroke-linecap="round"/>
<path d="M-25.1,-125.6 L8.9,-108.1 L40.2,-104.7 L67.3,-115.6" stroke="#DDD8CC" stroke-width="12" fill="none" stroke-linecap="round"/>
<path d="M625.9,1233.2 L615.4,1207.1 L582.0,1127.8 L463.4,842.3 L452.0,812.8" stroke="#DDD8CC" stroke-width="12" fill="none" stroke-linecap="round"/>
<path d="M339.1,472.4 L329.8,448.4" stroke="#E6E2D8" stroke-width="3" fill="none" stroke-linecap="round"/>
<path d="M365.0,681.3 L372.6,700.4" stroke="#E6E2D8" stroke-width="3" fill="none" stroke-linecap="round"/>
<path d="M636.5,1335.8 L645.3,1356.0" stroke="#E6E2D8" stroke-width="3" fill="none" stroke-linecap="round"/>
<path d="M607.2,1118.5 L596.5,1092.7" stroke="#E6E2D8" stroke-width="3" fill="none" stroke-linecap="round"/>
<path d="M101.2,-362.5 L108.0,-341.7" stroke="#E6E2D8" stroke-width="3" fill="none" stroke-linecap="round"/>
<path d="M540.8,803.6 L498.1,820.4" stroke="#E6E2D8" stroke-width="3" fill="none" stroke-linecap="round"/>
<path d="M-7.7,-400.2 L-43.1,-387.2 L-87.4,-371.0" stroke="#E6E2D8" stroke-width="3" fill="none" stroke-linecap="round"/>
<path d="M26.3,-43.5 L87.4,-66.5 L121.3,-84.2" stroke="#E6E2D8" stroke-width="3" fill="none" stroke-linecap="round"/>
<path d="M318.3,279.4 L280.6,292.9 L275.6,294.6 L242.8,306.4 L204.4,320.1 L198.9,322.2" stroke="#E6E2D8" stroke-width="3" fill="none" stroke-linecap="round"/>
<path d="M139.0,281.7 L176.6,268.0 L182.3,265.8 L220.1,252.2 L253.8,240.0 L258.5,238.2" stroke="#E6E2D8" stroke-width="3" fill="none" stroke-linecap="round"/>
<path d="M443.5,-452.3 L436.1,-469.3 L426.8,-490.6 L415.9,-515.7" stroke="#E6E2D8" stroke-width="3" fill="none" stroke-linecap="round"/>
<path d="M513.1,736.3 L471.4,755.5 L467.5,757.2 L435.1,772.1 L404.3,785.8 L394.4,790.3" stroke="#E6E2D8" stroke-width="3" fill="none" stroke-linecap="round"/>
<path d="M558.0,1299.6 L596.3,1285.1 L639.4,1268.7 L676.7,1253.9 L685.0,1251.5 L720.7,1237.8" stroke="#E6E2D8" stroke-width="3" fill="none" stroke-linecap="round"/>
<path d="M-695.7,50.2 L-549.6,9.6 L-145.6,-95.7 L-89.3,-110.4 L-79.9,-112.8" stroke="#E6E2D8" stroke-width="3" fill="none" stroke-linecap="round"/>
<path d="M-25.1,-125.6 L-2.8,-64.5 L37.6,34.2" stroke="#DDD8CC" stroke-width="7" fill="none" stroke-linecap="round"/>
<path d="M37.6,34.2 L61.7,93.0 L139.0,281.7 L152.2,314.6 L157.5,326.4" stroke="#DDD8CC" stroke-width="7" fill="none" stroke-linecap="round"/>
<path d="M646.4,-8.8 L641.6,-33.0 L624.9,-139.0 L576.6,-275.7" stroke="#E6E2D8" stroke-width="3" fill="none" stroke-linecap="round"/>
<path d="M621.8,1000.5 L639.6,994.7 L726.0,970.7 L736.7,1006.6 L747.4,1042.4" stroke="#E6E2D8" stroke-width="3" fill="none" stroke-linecap="round"/>
<path d="M736.7,1006.6 L910.0,961.0" stroke="#E6E2D8" stroke-width="3" fill="none" stroke-linecap="round"/>
<path d="M726.0,970.7 L718.0,940.0 L896.4,889.5" stroke="#E6E2D8" stroke-width="3" fill="none" stroke-linecap="round"/>
<path d="M1047.1,577.6 L1111.9,747.5" stroke="#E6E2D8" stroke-width="3" fill="none" stroke-linecap="round"/>
<path d="M58.7,1109.8 L37.8,1107.4 L-32.7,1095.1 L-45.9,1095.1 L-164.2,1104.7 L-171.2,1103.6 L-174.3,1101.6 L-180.6,1056.4 L-183.7,1046.8 L-191.1,1034.8 L-216.0,988.8 L-222.2,941.3 L-226.8,910.9" stroke="#E6E2D8" stroke-width="3" fill="none" stroke-linecap="round"/>
<path d="M341.0,332.7 L420.6,302.1" stroke="#E6E2D8" stroke-width="3" fill="none" stroke-linecap="round"/>
<path d="M420.6,302.1 L507.7,267.2" stroke="#E6E2D8" stroke-width="3" fill="none" stroke-linecap="round"/>
<path d="M507.7,267.2 L526.9,259.6 L534.6,277.0" stroke="#E6E2D8" stroke-width="3" fill="none" stroke-linecap="round"/>
<path d="M420.6,302.1 L430.0,324.8 L432.1,329.9" stroke="#E6E2D8" stroke-width="3" fill="none" stroke-linecap="round"/>
<path d="M430.0,324.8 L549.7,279.1 L573.2,334.1 L506.9,363.3 L516.7,388.1 L475.0,405.1 L468.3,390.2" stroke="#E6E2D8" stroke-width="3" fill="none" stroke-linecap="round"/>
<path d="M318.6,1010.5 L282.6,904.0" stroke="#E6E2D8" stroke-width="3" fill="none" stroke-linecap="round"/>
<path d="M421.4,1010.6 L371.4,1031.4" stroke="#E6E2D8" stroke-width="3" fill="none" stroke-linecap="round"/>
<path d="M425.7,1008.8 L421.4,1010.6" stroke="#E6E2D8" stroke-width="3" fill="none" stroke-linecap="round"/>
<path d="M436.4,1004.3 L425.7,1008.8" stroke="#E6E2D8" stroke-width="3" fill="none" stroke-linecap="round"/>
<path d="M371.4,1031.4 L362.4,1034.7 L347.6,1032.5 L338.9,1022.6 L318.6,1010.5 L309.2,1010.8 L271.5,1023.3 L261.0,1020.9 L256.9,1013.6" stroke="#E6E2D8" stroke-width="3" fill="none" stroke-linecap="round"/>
<path d="M-97.1,-290.7 L-111.1,-284.6 L-125.7,-278.3 L-241.6,-228.6" stroke="#DDD8CC" stroke-width="7" fill="none" stroke-linecap="round"/>
<path d="M805.1,1671.3 L781.4,1613.4 L776.4,1601.4 L660.2,1319.5 L645.2,1282.3 L639.4,1268.7 L625.9,1233.2" stroke="#DDD8CC" stroke-width="12" fill="none" stroke-linecap="round"/>
<path d="M890.2,1647.5 L836.3,1523.1 L720.7,1237.8 L704.3,1204.1 L676.0,1138.6 L649.4,1067.7 L621.8,1000.5 L546.9,818.4 L540.8,803.6 L529.8,775.1 L513.1,736.3 L423.3,526.5 L410.0,495.3 L341.0,332.7 L318.3,279.4 L307.7,254.4 L240.0,90.5 L226.4,57.9 L216.6,34.5 L149.8,-134.7 L117.1,-206.3" stroke="#DDD8CC" stroke-width="7" fill="none" stroke-linecap="round"/>
<path d="M-638.9,760.8 L-590.5,753.0" stroke="#E6E2D8" stroke-width="3" fill="none" stroke-linecap="round"/>
<path d="M-592.2,742.9 L-590.5,753.0 L-588.3,766.7 L-577.7,831.1 L-540.9,824.6" stroke="#E6E2D8" stroke-width="3" fill="none" stroke-linecap="round"/>
<path d="M-79.9,-112.8 L-25.1,-125.6" stroke="#E6E2D8" stroke-width="3" fill="none" stroke-linecap="round"/>
<path d="M650.2,-556.7 L641.4,-580.0" stroke="#E6E2D8" stroke-width="3" fill="none" stroke-linecap="round"/>
<path d="M-217.7,-570.8 L-211.3,-555.1 L-99.2,-295.0 L-97.1,-290.7 L-72.6,-241.5" stroke="#DDD8CC" stroke-width="7" fill="none" stroke-linecap="round"/>
<path d="M-75.3,-97.5 L-74.5,-95.0 L-73.5,-91.6 L-388.3,-5.2 L-748.9,95.1" stroke="#E6E2D8" stroke-width="3" fill="none" stroke-linecap="round"/>
<path d="M-85.2,-130.2 L-79.9,-112.8 L-75.3,-97.5" stroke="#E6E2D8" stroke-width="3" fill="none" stroke-linecap="round"/>
<path d="M-543.3,-13.5 L-540.8,-14.2 L-536.5,-13.3 L-338.7,-69.6 L-221.1,-101.1 L-87.0,-136.0 L-85.2,-130.2" stroke="#E6E2D8" stroke-width="3" fill="none" stroke-linecap="round"/>
<path d="M-87.0,-136.0 L-74.1,-140.5 L-67.3,-147.5 L-62.6,-156.6 L-63.2,-165.3 L-111.1,-284.6 L-169.4,-416.7 L-173.2,-426.4 L-214.6,-527.2 L-220.3,-531.3 L-224.2,-542.7" stroke="#E6E2D8" stroke-width="3" fill="none" stroke-linecap="round"/>
<path d="M-2.8,-64.5 L26.3,-43.5 L73.1,77.6 L81.6,84.5 L107.3,105.3" stroke="#E6E2D8" stroke-width="3" fill="none" stroke-linecap="round"/>
<path d="M184.7,69.1 L121.3,-84.2 L126.5,-117.2 L149.8,-134.7" stroke="#E6E2D8" stroke-width="3" fill="none" stroke-linecap="round"/>
<path d="M157.5,326.4 L157.0,411.3 L169.0,526.4 L166.0,587.6 L131.8,765.3 L118.3,827.5 L58.7,1109.8 L43.9,1180.0 L21.7,1292.4 L12.2,1326.0 L7.5,1345.3" stroke="#DDD8CC" stroke-width="7" fill="none" stroke-linecap="round"/>
<path d="M49.3,-374.0 L2.1,-376.5 L-7.7,-400.2 L-219.3,-916.0 L-227.8,-937.2" stroke="#E6E2D8" stroke-width="3" fill="none" stroke-linecap="round"/>
<path d="M184.7,69.1 L226.4,57.9" stroke="#E6E2D8" stroke-width="3" fill="none" stroke-linecap="round"/>
<path d="M206.1,943.3 L205.9,942.5 L203.9,942.9 L204.5,944.0 L176.9,953.8 L120.7,973.3 L124.3,983.1 L136.1,1016.6 L140.0,1027.1 L168.4,1017.7 L166.4,1010.5 L292.7,967.7 L276.1,919.2 L222.9,938.0 L221.8,933.9 L211.9,937.3 L213.3,941.0 L206.1,943.3 Z" fill="#E3DED2" stroke="#C9C3B2" stroke-width="0.7"/>
<path d="M538.2,534.7 L549.5,530.6 L546.4,523.5 L556.9,519.7 L573.7,513.3 L576.7,511.8 L567.9,490.8 L526.6,506.9 L527.1,508.0 L535.4,528.0 L538.2,534.7 Z" fill="#E3DED2" stroke="#C9C3B2" stroke-width="0.7"/>
<path d="M652.0,843.7 L658.9,841.4 L716.7,820.4 L719.2,823.0 L787.5,798.2 L786.7,796.3 L780.7,780.9 L743.7,794.4 L672.1,821.1 L646.5,830.1 L652.0,843.7 Z" fill="#E3DED2" stroke="#C9C3B2" stroke-width="0.7"/>
<path d="M664.4,1047.0 L669.6,1046.2 L721.1,1032.7 L712.6,1004.9 L665.2,1017.3 L660.2,1018.8 L647.3,1022.2 L655.0,1039.9 L655.6,1041.0 L659.1,1045.1 L664.4,1047.0 Z" fill="#E3DED2" stroke="#C9C3B2" stroke-width="0.7"/>
<path d="M497.9,256.2 L527.7,244.6 L523.6,235.2 L535.1,230.3 L528.2,213.8 L517.2,217.9 L509.5,198.7 L482.8,205.1 L497.1,239.3 L491.9,241.6 L497.9,256.2 Z" fill="#E3DED2" stroke="#C9C3B2" stroke-width="0.7"/>
<path d="M101.6,356.8 L71.4,359.2 L71.7,361.8 L73.9,388.9 L77.7,437.4 L97.0,435.1 L128.1,430.2 L122.4,353.2 L101.4,354.7 L101.6,356.8 Z" fill="#E3DED2" stroke="#C9C3B2" stroke-width="0.7"/>
<path d="M748.4,49.2 L784.8,41.3 L784.3,39.3 L774.8,0.6 L771.8,-13.6 L771.0,-14.7 L734.4,-7.2 L734.9,-4.6 L745.4,38.3 L745.9,40.5 L748.4,49.2 Z" fill="#E3DED2" stroke="#C9C3B2" stroke-width="0.7"/>
<path d="M808.2,641.5 L809.3,641.1 L971.1,579.1 L967.2,568.9 L813.7,628.7 L812.9,629.1 L811.5,626.4 L765.2,510.7 L756.7,514.1 L805.2,634.3 L808.2,641.5 Z" fill="#E3DED2" stroke="#C9C3B2" stroke-width="0.7"/>
<path d="M677.3,869.6 L681.2,869.2 L688.1,868.8 L734.6,864.7 L741.8,864.0 L765.2,862.1 L766.0,862.1 L759.9,846.7 L756.4,837.7 L675.1,844.8 L677.3,869.6 Z" fill="#E3DED2" stroke="#C9C3B2" stroke-width="0.7"/>
<path d="M521.6,720.4 L534.9,715.1 L556.4,707.2 L572.9,700.9 L556.9,661.0 L540.1,667.4 L551.4,694.8 L526.0,705.4 L514.7,677.2 L505.4,681.3 L513.8,700.4 L518.3,710.6 L521.6,720.4 Z" fill="#E3DED2" stroke="#C9C3B2" stroke-width="0.7"/>
<path d="M215.8,783.2 L235.6,781.3 L230.7,701.2 L222.7,702.0 L213.6,702.7 L213.8,705.4 L211.1,705.7 L211.4,716.6 L214.1,716.3 L214.7,720.8 L211.9,721.1 L215.8,783.2 Z" fill="#E3DED2" stroke="#C9C3B2" stroke-width="0.7"/>
<path d="M157.9,730.9 L189.3,727.9 L190.4,727.9 L190.1,727.2 L189.3,717.0 L189.0,713.6 L187.7,713.6 L187.4,706.1 L186.6,706.1 L186.6,704.6 L160.9,706.5 L157.9,730.9 Z" fill="#E3DED2" stroke="#C9C3B2" stroke-width="0.7"/>
<path d="M25.6,643.0 L57.3,639.2 L46.0,566.7 L34.2,568.6 L17.4,571.2 L14.3,571.6 L16.8,589.2 L22.6,625.7 L25.6,643.0 Z" fill="#E3DED2" stroke="#C9C3B2" stroke-width="0.7"/>
<path d="M963.3,1177.4 L971.9,1173.7 L974.1,1169.1 L984.8,1164.6 L973.5,1137.9 L968.0,1125.5 L965.5,1118.8 L929.7,1118.4 L909.9,1127.0 L930.3,1176.7 L963.3,1177.4 Z" fill="#E3DED2" stroke="#C9C3B2" stroke-width="0.7"/>
<path d="M887.3,304.0 L889.2,302.8 L891.4,302.1 L884.5,284.8 L886.2,283.7 L866.3,207.4 L879.9,202.9 L876.5,189.3 L858.4,193.5 L863.0,205.5 L865.0,211.5 L887.3,304.0 Z" fill="#E3DED2" stroke="#C9C3B2" stroke-width="0.7"/>
<path d="M886.2,797.8 L871.9,762.5 L821.4,782.4 L822.0,783.5 L835.4,817.5 L886.2,797.8 Z" fill="#E3DED2" stroke="#C9C3B2" stroke-width="0.7"/>
<path d="M133.9,835.0 L181.1,830.5 L185.2,829.8 L191.5,829.0 L189.6,807.6 L186.0,808.0 L179.1,809.1 L176.9,786.9 L157.4,788.8 L143.9,790.3 L141.4,801.6 L134.8,830.5 L133.9,835.0 Z" fill="#E3DED2" stroke="#C9C3B2" stroke-width="0.7"/>
<path d="M17.4,918.1 L50.2,917.3 L63.1,916.6 L61.5,897.8 L60.9,888.8 L69.5,888.4 L68.4,866.6 L58.7,867.0 L6.4,868.8 L6.4,873.4 L6.9,889.1 L16.3,889.5 L17.4,918.1 Z" fill="#E3DED2" stroke="#C9C3B2" stroke-width="0.7"/>
<path d="M717.6,933.5 L728.8,930.9 L739.6,927.9 L741.8,920.7 L742.9,915.8 L744.3,911.7 L742.1,904.6 L735.2,906.4 L724.4,909.1 L708.2,912.8 L710.1,919.6 L707.6,930.5 L717.6,933.5 Z" fill="#E3DED2" stroke="#C9C3B2" stroke-width="0.7"/>
<path d="M203.1,623.4 L248.0,622.7 L248.8,622.3 L254.3,620.4 L259.9,617.8 L246.6,585.6 L232.6,551.6 L212.5,559.5 L211.4,556.5 L191.5,564.8 L200.1,585.8 L202.3,596.4 L203.1,623.4 Z" fill="#E3DED2" stroke="#C9C3B2" stroke-width="0.7"/>
<path d="M293.2,896.3 L294.9,896.3 L301.5,895.2 L318.6,894.0 L343.6,892.2 L342.3,876.0 L340.9,876.0 L338.8,854.7 L337.3,839.2 L338.7,839.2 L337.0,823.4 L330.4,823.7 L286.3,829.4 L290.2,863.2 L293.2,896.3 Z" fill="#E3DED2" stroke="#C9C3B2" stroke-width="0.7"/>
<path d="M443.4,1206.7 L484.7,1195.1 L481.4,1186.4 L479.2,1187.6 L478.6,1185.7 L490.5,1180.8 L475.2,1143.7 L433.7,1042.8 L430.4,1035.0 L431.3,1034.6 L421.4,1010.6 L416.4,998.5 L369.0,1016.9 L365.9,1018.1 L371.4,1031.4 L391.5,1080.2 L397.4,1094.4 L396.8,1094.7 L397.7,1096.9 L443.4,1206.7 Z" fill="#E3DED2" stroke="#C9C3B2" stroke-width="0.7"/>
<path d="M569.0,834.6 L593.3,824.1 L591.6,820.4 L607.3,813.6 L609.5,807.6 L606.2,798.2 L601.3,788.0 L605.4,786.5 L607.9,785.0 L607.3,784.3 L602.1,768.9 L556.9,786.2 L553.6,795.6 L564.0,821.9 L569.0,834.6 Z" fill="#E3DED2" stroke="#C9C3B2" stroke-width="0.7"/>
<path d="M820.6,881.6 L831.9,878.6 L844.3,874.9 L856.2,871.1 L868.6,867.0 L880.4,863.6 L892.5,859.8 L902.4,856.4 L900.2,848.2 L905.2,847.1 L901.3,836.2 L850.4,855.7 L815.9,868.8 L820.6,881.6 Z" fill="#E3DED2" stroke="#C9C3B2" stroke-width="0.7"/>
<path d="M1.1,844.8 L5.0,843.7 L8.3,840.7 L20.4,838.8 L20.4,838.0 L19.3,828.3 L52.4,823.0 L48.5,792.9 L-20.1,804.2 L-15.7,837.7 L-5.8,835.8 L-4.9,842.5 L-3.0,842.2 L1.1,844.8 Z" fill="#E3DED2" stroke="#C9C3B2" stroke-width="0.7"/>
<path d="M546.7,744.1 L754.2,664.0 L750.6,655.4 L622.5,705.4 L621.9,703.9 L567.1,726.0 L567.4,727.2 L564.1,726.0 L560.2,716.6 L556.4,707.2 L534.9,715.1 L541.0,730.2 L546.7,744.1 Z" fill="#E3DED2" stroke="#C9C3B2" stroke-width="0.7"/>
<path d="M758.1,353.6 L822.5,328.4 L792.5,210.0 L790.8,203.2 L776.2,207.4 L771.6,188.2 L739.3,196.9 L739.3,196.1 L718.4,201.7 L718.4,202.5 L728.8,242.0 L747.0,311.5 L747.9,314.9 L758.1,353.6 Z" fill="#E3DED2" stroke="#C9C3B2" stroke-width="0.7"/>
<path d="M-180.7,918.5 L-24.2,907.9 L-24.8,901.5 L-25.3,894.8 L-26.4,888.4 L-26.4,886.5 L-77.4,889.9 L-110.5,892.5 L-130.0,894.0 L-134.5,894.4 L-176.6,897.4 L-185.2,898.2 L-182.4,908.7 L-181.6,915.8 L-180.7,918.5 Z" fill="#E3DED2" stroke="#C9C3B2" stroke-width="0.7"/>
<path d="M585.8,876.0 L612.3,873.7 L609.8,867.7 L619.2,864.3 L623.0,866.2 L625.0,862.5 L638.7,857.6 L630.2,838.0 L623.3,840.7 L616.4,823.7 L610.1,821.1 L594.4,827.9 L593.3,824.1 L569.0,834.6 L580.4,862.7 L585.8,876.0 Z" fill="#E3DED2" stroke="#C9C3B2" stroke-width="0.7"/>
<path d="M-6.0,550.5 L30.0,545.3 L30.0,544.9 L23.2,496.0 L7.7,385.9 L14.1,385.1 L12.7,368.2 L12.4,364.5 L11.9,358.1 L-22.3,361.5 L-34.2,362.6 L-33.6,364.9 L-34.4,364.9 L-6.0,549.8 L-6.0,550.5 Z" fill="#E3DED2" stroke="#C9C3B2" stroke-width="0.7"/>
<path d="M-176.3,938.8 L-55.9,931.2 L-55.4,936.1 L-40.2,935.4 L-35.5,935.0 L-35.8,931.6 L-38.3,931.6 L-38.6,921.8 L-38.3,920.3 L-37.2,918.8 L-24.2,907.9 L-180.7,918.5 L-181.0,920.0 L-180.5,919.6 L-176.3,938.8 Z" fill="#E3DED2" stroke="#C9C3B2" stroke-width="0.7"/>
<path d="M808.5,974.8 L866.1,960.6 L854.5,920.0 L852.3,920.7 L846.8,922.2 L840.7,924.1 L841.8,927.5 L831.9,930.1 L830.8,926.0 L822.0,928.6 L822.5,932.4 L812.3,935.4 L811.2,931.2 L809.9,931.6 L797.5,935.0 L808.5,974.8 Z" fill="#E3DED2" stroke="#C9C3B2" stroke-width="0.7"/>
<path d="M923.4,945.5 L956.2,937.3 L976.8,932.4 L975.7,928.6 L996.1,923.3 L995.0,917.7 L988.1,891.0 L985.7,881.6 L981.0,883.1 L978.5,873.0 L943.0,881.6 L946.5,896.7 L914.0,904.6 L917.6,920.7 L919.0,926.4 L923.4,945.5 Z" fill="#E3DED2" stroke="#C9C3B2" stroke-width="0.7"/>
<path d="M100.3,990.6 L124.3,983.1 L120.7,973.3 L176.9,953.8 L174.7,946.6 L178.0,929.0 L184.4,897.3 L149.1,898.2 L119.6,900.0 L114.9,921.1 L109.1,951.2 L104.7,971.5 L112.4,968.8 L113.8,973.7 L103.3,977.1 L100.3,990.6 Z" fill="#E3DED2" stroke="#C9C3B2" stroke-width="0.7"/>
<path d="M16.8,1072.9 L27.8,1021.8 L50.2,917.3 L17.4,918.1 L2.8,918.5 L-0.3,932.4 L-8.3,930.5 L-12.7,952.3 L-4.7,954.2 L-12.7,991.0 L-17.9,1016.6 L-27.5,1063.2 L16.8,1072.9 Z" fill="#E3DED2" stroke="#C9C3B2" stroke-width="0.7"/>
<path d="M866.1,960.6 L923.4,945.5 L919.0,926.4 L916.5,926.7 L915.1,921.1 L917.6,920.7 L914.0,904.6 L897.5,909.1 L898.6,912.8 L888.7,915.1 L887.6,911.7 L879.0,913.9 L880.1,917.3 L869.4,920.3 L868.3,916.6 L854.5,920.0 L866.1,960.6 Z" fill="#E3DED2" stroke="#C9C3B2" stroke-width="0.7"/>
<path d="M595.8,496.4 L728.8,445.3 L730.8,445.7 L732.2,451.3 L737.7,465.6 L746.2,462.2 L740.1,446.0 L787.0,429.1 L788.4,426.9 L880.1,391.2 L882.6,392.3 L888.7,406.2 L903.5,400.6 L897.8,385.9 L894.7,375.0 L593.8,491.5 L595.8,496.4 Z" fill="#E3DED2" stroke="#C9C3B2" stroke-width="0.7"/>
<path d="M160.9,706.5 L186.6,704.6 L186.6,706.1 L187.4,706.1 L208.6,705.7 L211.1,705.7 L213.8,705.4 L213.6,702.7 L222.7,702.0 L226.2,683.9 L240.6,682.1 L243.9,688.1 L244.7,699.7 L249.1,699.7 L286.6,696.3 L275.2,669.2 L264.3,643.3 L174.4,645.2 L160.9,706.5 Z" fill="#E3DED2" stroke="#C9C3B2" stroke-width="0.7"/>
<path d="M285.2,829.4 L286.3,829.4 L330.4,823.7 L328.7,810.2 L327.4,810.2 L326.7,804.1 L324.9,786.5 L326.5,786.5 L326.3,785.0 L324.9,772.3 L301.2,774.5 L301.7,780.9 L297.1,781.7 L296.2,775.3 L279.4,777.1 L281.4,796.7 L281.9,803.8 L282.7,809.1 L285.2,829.4 Z" fill="#E3DED2" stroke="#C9C3B2" stroke-width="0.7"/>
<path d="M631.3,803.8 L652.8,795.6 L654.7,800.8 L660.2,798.9 L661.3,802.0 L741.2,770.8 L740.1,767.4 L745.4,765.1 L743.5,759.9 L768.3,750.5 L751.7,710.6 L728.8,719.6 L673.2,740.7 L663.5,744.4 L602.1,768.9 L607.3,784.3 L620.6,779.0 L631.3,803.8 Z" fill="#E3DED2" stroke="#C9C3B2" stroke-width="0.7"/>
<path d="M240.6,1186.8 L246.9,1184.2 L245.8,1181.2 L256.3,1177.8 L277.2,1169.5 L309.5,1156.7 L299.0,1131.6 L297.6,1127.8 L297.1,1126.7 L286.6,1099.6 L286.0,1097.7 L283.8,1092.1 L273.9,1066.9 L241.9,1079.3 L221.6,1086.5 L211.1,1090.2 L209.2,1085.0 L202.8,1087.6 L205.3,1093.2 L240.3,1186.1 L240.6,1186.8 Z" fill="#E3DED2" stroke="#C9C3B2" stroke-width="0.7"/>
<path d="M254.3,779.4 L276.1,777.1 L279.4,777.1 L296.2,775.3 L301.2,774.5 L324.9,772.3 L320.5,761.4 L317.2,758.0 L315.2,757.6 L313.0,757.6 L298.2,759.1 L297.1,745.2 L296.8,735.1 L295.1,709.1 L292.9,708.7 L291.3,696.3 L286.6,696.3 L249.1,699.7 L254.3,779.4 Z" fill="#E3DED2" stroke="#C9C3B2" stroke-width="0.7"/>
<path d="M-72.7,743.7 L-71.1,743.7 L-59.5,741.8 L-50.4,740.3 L-39.4,738.4 L-11.8,733.5 L-14.3,721.1 L-19.5,718.1 L-20.4,717.4 L-28.4,718.5 L-28.6,717.4 L-32.2,717.8 L-33.3,710.6 L-36.6,690.7 L-37.2,685.8 L-44.1,686.9 L-84.6,693.0 L-81.3,712.1 L-78.0,711.4 L-72.7,743.7 Z" fill="#E3DED2" stroke="#C9C3B2" stroke-width="0.7"/>
<path d="M45.8,1266.9 L86.4,1264.0 L91.5,1263.9 L114.4,1158.2 L104.2,1156.0 L98.9,1154.9 L102.2,1141.3 L105.3,1142.1 L119.9,1077.1 L114.6,1060.9 L114.9,1060.5 L116.3,1057.5 L114.9,1054.5 L111.9,1053.4 L106.5,1038.4 L105.6,1038.7 L95.6,1011.3 L40.2,1265.0 L45.8,1266.1 L45.8,1266.9 Z" fill="#E3DED2" stroke="#C9C3B2" stroke-width="0.7"/>
<path d="M76.9,611.4 L91.8,609.9 L98.9,608.4 L106.4,607.6 L148.5,602.0 L152.4,576.4 L113.3,581.3 L95.6,584.3 L81.6,587.0 L73.3,588.1 L72.5,588.5 L73.6,595.2 L84.9,593.7 L84.3,590.4 L97.8,588.1 L100.3,601.3 L97.3,601.3 L97.3,600.5 L75.5,603.5 L76.9,611.4 Z" fill="#E3DED2" stroke="#C9C3B2" stroke-width="0.7"/>
<path d="M679.8,276.5 L682.6,275.8 L659.1,180.7 L662.2,175.8 L730.5,159.3 L738.2,157.4 L726.4,107.8 L646.5,126.9 L632.4,67.9 L745.9,40.5 L745.4,38.3 L631.6,65.7 L629.4,66.1 L645.1,130.3 L647.3,129.6 L724.4,111.5 L735.7,155.5 L729.7,156.6 L655.6,174.7 L679.8,276.5 Z" fill="#E3DED2" stroke="#C9C3B2" stroke-width="0.7"/>
<path d="M636.0,983.1 L660.8,975.6 L661.9,978.6 L663.3,979.0 L664.1,977.1 L663.3,975.2 L673.5,971.5 L674.3,974.1 L675.7,974.5 L676.8,973.3 L676.2,971.1 L698.8,963.6 L689.2,932.0 L671.8,937.6 L666.3,939.5 L660.8,941.0 L655.6,926.4 L624.4,936.5 L621.1,937.3 L636.0,983.1 Z" fill="#E3DED2" stroke="#C9C3B2" stroke-width="0.7"/>
<path d="M307.5,196.9 L355.5,185.2 L357.7,184.8 L348.6,144.2 L416.1,129.2 L427.4,177.7 L469.8,167.9 L459.1,119.4 L500.1,110.0 L499.3,107.0 L486.6,55.5 L461.8,61.2 L463.8,70.9 L323.5,102.5 L322.1,95.0 L293.5,101.4 L291.8,104.8 L281.9,125.8 L280.3,130.0 L282.3,134.9 L307.5,196.9 Z" fill="#E3DED2" stroke="#C9C3B2" stroke-width="0.7"/>
<path d="M-164.8,1024.4 L-89.0,1019.2 L-44.3,1015.8 L-36.9,1015.4 L-39.4,966.6 L-39.1,965.4 L-47.7,966.2 L-52.9,966.6 L-53.7,958.3 L-74.1,960.2 L-73.8,968.1 L-113.8,970.7 L-114.6,963.2 L-134.7,964.3 L-134.7,971.8 L-162.6,973.7 L-164.2,967.7 L-170.3,968.1 L-168.1,976.0 L-164.8,1024.4 Z" fill="#E3DED2" stroke="#C9C3B2" stroke-width="0.7"/>
<path d="M410.9,452.0 L426.3,446.0 L458.8,433.3 L450.8,414.8 L456.9,412.2 L444.5,381.4 L468.7,372.0 L478.9,396.8 L512.0,383.6 L501.8,358.1 L568.8,331.0 L548.9,282.5 L432.1,329.9 L424.6,332.9 L408.1,291.9 L402.9,293.8 L401.2,294.6 L370.6,307.0 L362.6,310.0 L354.1,313.4 L371.2,355.5 L377.8,372.0 L382.7,383.6 L386.9,393.4 L410.9,452.0 Z" fill="#D9D3C4" stroke="#8A8474" stroke-width="1.2"/>
<path d="M762.2,991.4 L776.0,987.2 L775.1,983.9 L790.6,979.7 L808.5,974.8 L797.5,935.0 L785.6,938.0 L784.5,938.4 L785.3,941.8 L777.3,944.0 L776.2,940.6 L776.0,940.6 L770.5,942.1 L769.9,942.5 L770.7,945.9 L761.6,948.2 L760.8,944.8 L759.2,938.8 L758.6,939.1 L735.7,945.1 L745.9,981.2 L748.7,980.1 L751.2,989.9 L761.1,987.6 L762.2,991.4 Z" fill="#E3DED2" stroke="#C9C3B2" stroke-width="0.7"/>
<path d="M612.8,940.3 L621.1,937.3 L624.4,936.5 L655.6,926.4 L668.0,923.3 L700.2,915.1 L708.2,912.8 L724.4,909.1 L735.2,906.4 L742.1,904.6 L744.0,903.8 L741.8,864.0 L734.6,864.7 L688.1,868.8 L681.2,869.2 L677.3,869.6 L670.2,870.0 L646.2,871.7 L644.3,871.9 L638.5,871.9 L612.3,873.7 L585.8,876.0 L588.6,882.8 L594.9,897.7 L599.9,909.4 L612.8,940.3 Z" fill="#E3DED2" stroke="#C9C3B2" stroke-width="0.7"/>
<path d="M23.2,496.0 L26.7,495.6 L12.1,394.5 L73.9,388.9 L71.7,361.8 L61.2,363.0 L61.2,364.1 L60.1,364.5 L59.8,363.0 L49.9,364.5 L49.9,365.6 L48.8,365.6 L48.5,364.1 L37.8,365.6 L37.8,366.7 L36.7,366.7 L36.7,365.6 L26.2,366.7 L26.5,367.9 L25.1,368.2 L25.1,367.1 L14.9,368.6 L14.6,369.0 L13.5,369.0 L12.7,368.2 L14.1,385.1 L7.7,385.9 L23.2,496.0 Z" fill="#E3DED2" stroke="#C9C3B2" stroke-width="0.7"/>
<path d="M606.5,304.3 L609.3,303.2 L598.0,256.2 L623.6,248.0 L622.8,245.0 L609.5,188.6 L609.3,186.7 L608.7,186.0 L593.0,189.7 L590.2,190.5 L565.4,196.5 L555.3,151.4 L579.5,145.7 L582.5,145.0 L592.5,142.4 L591.9,141.2 L579.2,87.9 L576.2,88.6 L499.3,107.0 L500.1,110.0 L574.8,92.7 L576.2,92.4 L587.5,137.1 L583.6,142.4 L551.4,149.5 L551.7,152.5 L563.2,199.5 L564.9,199.5 L601.5,190.5 L608.2,195.0 L620.3,246.1 L593.8,254.0 L606.5,304.3 Z" fill="#E3DED2" stroke="#C9C3B2" stroke-width="0.7"/>
<path d="M503.4,479.9 L542.0,464.8 L561.3,457.3 L580.6,450.2 L619.7,434.8 L615.6,424.6 L601.0,390.0 L596.3,391.9 L598.2,396.4 L588.0,400.2 L585.8,396.0 L578.4,399.1 L580.3,403.6 L569.3,407.7 L567.7,403.2 L563.0,405.1 L558.8,406.6 L560.5,411.1 L549.5,415.2 L547.8,410.7 L540.4,413.7 L542.3,418.2 L531.0,423.1 L529.1,417.8 L524.7,419.7 L520.0,421.2 L521.6,426.5 L510.9,430.6 L509.2,426.1 L501.8,428.4 L503.7,433.3 L491.6,438.1 L489.7,433.3 L484.7,435.5 L485.3,437.0 L488.6,444.2 L490.2,447.9 L499.0,469.3 L503.4,479.9 Z" fill="#E3DED2" stroke="#C9C3B2" stroke-width="0.7"/>
<path d="M609.3,303.2 L681.7,284.4 L679.8,276.5 L655.6,174.7 L729.7,156.6 L735.7,155.5 L724.4,111.5 L647.3,129.6 L645.1,130.3 L629.4,66.1 L631.6,65.7 L745.4,38.3 L734.9,-4.6 L615.6,24.3 L614.8,21.7 L591.3,26.6 L592.7,32.6 L593.3,35.2 L568.5,41.3 L566.0,42.0 L564.6,37.1 L486.6,55.5 L499.3,107.0 L576.2,88.6 L579.2,87.9 L591.9,141.2 L592.5,142.4 L582.5,145.0 L579.5,145.7 L555.3,151.4 L565.4,196.5 L590.2,190.5 L593.0,189.7 L608.7,186.0 L609.3,186.7 L609.5,188.6 L622.8,245.0 L623.6,248.0 L598.0,256.2 L609.3,303.2 Z" fill="#E3DED2" stroke="#C9C3B2" stroke-width="0.7"/>
<path d="M576.2,520.1 L579.8,518.9 L576.7,511.8 L573.7,513.3 L576.2,520.1 Z" fill="#E3DED2" stroke="#C9C3B2" stroke-width="0.7"/>
<path d="M493.0,650.1 L535.1,634.0 L523.6,605.8 L481.4,621.9 L488.7,639.7 L493.0,650.1 Z" fill="#E3DED2" stroke="#C9C3B2" stroke-width="0.7"/>
<path d="M297.6,1127.8 L303.9,1125.9 L303.1,1124.4 L297.1,1126.7 L297.6,1127.8 Z" fill="#E3DED2" stroke="#C9C3B2" stroke-width="0.7"/>
<path d="M622.2,368.6 L625.0,367.1 L623.3,363.3 L620.8,364.1 L622.2,368.6 Z" fill="#E3DED2" stroke="#C9C3B2" stroke-width="0.7"/>
<path d="M673.8,1085.5 L677.0,1093.0 L713.7,1182.0 L826.9,1183.2 L933.3,1184.3 L930.3,1176.7 L909.9,1127.0 L884.0,1064.7 L879.6,1053.0 L869.4,1027.5 L707.9,1069.4 L706.4,1065.9 L669.7,1075.9 L680.6,1079.1 L681.9,1082.2 L673.8,1085.5 Z" fill="#E3DED2" stroke="#C9C3B2" stroke-width="0.7"/>
<path d="M330.1,255.9 L340.3,251.4 L336.2,240.8 L324.9,243.5 L330.1,255.9 Z" fill="#E3DED2" stroke="#C9C3B2" stroke-width="0.7"/>
<path d="M117.7,484.4 L148.5,480.2 L145.2,455.4 L114.4,459.9 L117.7,484.4 Z" fill="#E3DED2" stroke="#C9C3B2" stroke-width="0.7"/>
<path d="M21.0,643.7 L25.6,643.0 L22.6,625.7 L18.2,626.4 L21.0,643.7 Z" fill="#E3DED2" stroke="#C9C3B2" stroke-width="0.7"/>
<path d="M117.1,876.0 L125.1,875.6 L127.3,864.3 L120.2,863.2 L117.1,876.0 Z" fill="#E3DED2" stroke="#C9C3B2" stroke-width="0.7"/>
<path d="M549.5,415.2 L560.5,411.1 L558.8,406.6 L547.8,410.7 L549.5,415.2 Z" fill="#E3DED2" stroke="#C9C3B2" stroke-width="0.7"/>
<path d="M286.0,1097.7 L292.1,1095.5 L289.9,1089.8 L283.8,1092.1 L286.0,1097.7 Z" fill="#E3DED2" stroke="#C9C3B2" stroke-width="0.7"/>
<path d="M-11.3,869.6 L-4.7,869.2 L-5.2,863.6 L-11.8,864.0 L-11.3,869.6 Z" fill="#E3DED2" stroke="#C9C3B2" stroke-width="0.7"/>
<path d="M770.5,942.1 L776.0,940.6 L774.6,936.1 L769.1,937.3 L770.5,942.1 Z" fill="#E3DED2" stroke="#C9C3B2" stroke-width="0.7"/>
<path d="M299.0,1131.6 L305.1,1129.7 L303.9,1125.9 L297.6,1127.8 L299.0,1131.6 Z" fill="#E3DED2" stroke="#C9C3B2" stroke-width="0.7"/>
<path d="M530.5,529.5 L535.4,528.0 L527.1,508.0 L522.5,509.9 L530.5,529.5 Z" fill="#E3DED2" stroke="#C9C3B2" stroke-width="0.7"/>
<path d="M615.0,603.1 L621.7,600.5 L618.6,593.4 L612.0,596.0 L615.0,603.1 Z" fill="#E3DED2" stroke="#C9C3B2" stroke-width="0.7"/>
<path d="M763.3,145.4 L771.3,143.5 L767.4,128.5 L758.9,130.3 L763.3,145.4 Z" fill="#E3DED2" stroke="#C9C3B2" stroke-width="0.7"/>
<path d="M141.4,801.6 L143.9,790.3 L135.9,790.7 L133.7,800.1 L141.4,801.6 Z" fill="#E3DED2" stroke="#C9C3B2" stroke-width="0.7"/>
<path d="M884.0,1064.7 L909.6,1055.3 L906.6,1043.2 L879.6,1053.0 L884.0,1064.7 Z" fill="#E3DED2" stroke="#C9C3B2" stroke-width="0.7"/>
<path d="M666.3,939.5 L671.8,937.6 L669.6,930.9 L664.1,932.7 L666.3,939.5 Z" fill="#E3DED2" stroke="#C9C3B2" stroke-width="0.7"/>
<path d="M288.5,897.0 L293.2,896.3 L290.2,863.2 L284.9,863.6 L288.5,897.0 Z" fill="#E3DED2" stroke="#C9C3B2" stroke-width="0.7"/>
<path d="M531.0,423.1 L542.3,418.2 L540.4,413.7 L529.1,417.8 L531.0,423.1 Z" fill="#E3DED2" stroke="#C9C3B2" stroke-width="0.7"/>
<path d="M534.3,577.6 L542.6,574.2 L539.8,567.4 L531.6,570.4 L534.3,577.6 Z" fill="#E3DED2" stroke="#C9C3B2" stroke-width="0.7"/>
<path d="M297.1,1126.7 L303.1,1124.4 L292.7,1097.7 L286.6,1099.6 L297.1,1126.7 Z" fill="#E3DED2" stroke="#C9C3B2" stroke-width="0.7"/>
<path d="M278.0,797.1 L281.4,796.7 L279.4,777.1 L276.1,777.1 L278.0,797.1 Z" fill="#E3DED2" stroke="#C9C3B2" stroke-width="0.7"/>
<path d="M865.2,670.0 L875.4,666.3 L874.3,663.3 L864.1,667.0 L865.2,670.0 Z" fill="#E3DED2" stroke="#C9C3B2" stroke-width="0.7"/>
<path d="M281.4,829.8 L285.2,829.4 L282.7,809.1 L279.1,809.5 L281.4,829.8 Z" fill="#E3DED2" stroke="#C9C3B2" stroke-width="0.7"/>
<path d="M-3.8,886.9 L0.0,886.9 L-0.3,880.9 L-4.1,880.5 L-3.8,886.9 Z" fill="#E3DED2" stroke="#C9C3B2" stroke-width="0.7"/>
<path d="M116.6,749.7 L121.8,748.6 L123.5,737.7 L114.6,739.2 L116.6,749.7 Z" fill="#E3DED2" stroke="#C9C3B2" stroke-width="0.7"/>
<path d="M472.3,455.1 L490.2,447.9 L488.6,444.2 L470.7,451.7 L472.3,455.1 Z" fill="#E3DED2" stroke="#C9C3B2" stroke-width="0.7"/>
<path d="M30.0,544.9 L33.6,544.5 L26.7,495.6 L23.2,496.0 L30.0,544.9 Z" fill="#E3DED2" stroke="#C9C3B2" stroke-width="0.7"/>
<path d="M20.4,838.0 L53.7,832.4 L52.4,823.0 L19.3,828.3 L20.4,838.0 Z" fill="#E3DED2" stroke="#C9C3B2" stroke-width="0.7"/>
<path d="M110.2,509.9 L120.7,508.4 L117.7,484.4 L107.8,485.9 L110.2,509.9 Z" fill="#E3DED2" stroke="#C9C3B2" stroke-width="0.7"/>
<path d="M660.2,1018.8 L665.2,1017.3 L663.0,1010.5 L658.3,1012.0 L660.2,1018.8 Z" fill="#E3DED2" stroke="#C9C3B2" stroke-width="0.7"/>
<path d="M281.9,125.8 L291.8,104.8 L284.1,101.8 L274.7,122.1 L281.9,125.8 Z" fill="#E3DED2" stroke="#C9C3B2" stroke-width="0.7"/>
<path d="M61.5,897.8 L70.0,897.8 L69.5,888.4 L60.9,888.8 L61.5,897.8 Z" fill="#E3DED2" stroke="#C9C3B2" stroke-width="0.7"/>
<path d="M-17.9,1016.6 L-12.7,991.0 L-35.5,986.1 L-33.3,1015.4 L-17.9,1016.6 Z" fill="#E3DED2" stroke="#C9C3B2" stroke-width="0.7"/>
<path d="M12.7,590.0 L16.8,589.2 L14.3,571.6 L9.9,572.3 L12.7,590.0 Z" fill="#E3DED2" stroke="#C9C3B2" stroke-width="0.7"/>
<path d="M879.0,913.9 L887.6,911.7 L886.7,908.3 L878.7,910.6 L879.0,913.9 Z" fill="#E3DED2" stroke="#C9C3B2" stroke-width="0.7"/>
<path d="M826.1,342.7 L890.6,317.1 L887.3,304.0 L822.5,328.4 L826.1,342.7 Z" fill="#E3DED2" stroke="#C9C3B2" stroke-width="0.7"/>
<path d="M-14.9,692.2 L-12.7,691.8 L-14.0,682.4 L-16.5,682.8 L-14.9,692.2 Z" fill="#E3DED2" stroke="#C9C3B2" stroke-width="0.7"/>
<path d="M-47.4,849.3 L-32.8,847.1 L-37.7,806.8 L-54.3,809.1 L-47.4,849.3 Z" fill="#E3DED2" stroke="#C9C3B2" stroke-width="0.7"/>
<path d="M526.0,705.4 L551.4,694.8 L540.1,667.4 L514.7,677.2 L526.0,705.4 Z" fill="#E3DED2" stroke="#C9C3B2" stroke-width="0.7"/>
<path d="M651.7,363.7 L656.1,361.8 L654.7,358.5 L650.3,360.3 L651.7,363.7 Z" fill="#E3DED2" stroke="#C9C3B2" stroke-width="0.7"/>
<path d="M879.6,1053.0 L906.6,1043.2 L898.6,1016.6 L868.0,1024.1 L869.4,1027.5 L879.6,1053.0 Z" fill="#E3DED2" stroke="#C9C3B2" stroke-width="0.7"/>
<path d="M569.3,407.7 L580.3,403.6 L578.4,399.1 L567.7,403.2 L569.3,407.7 Z" fill="#E3DED2" stroke="#C9C3B2" stroke-width="0.7"/>
<path d="M264.3,643.3 L269.8,643.3 L259.9,617.8 L254.3,620.4 L259.3,631.8 L264.3,643.3 Z" fill="#E3DED2" stroke="#C9C3B2" stroke-width="0.7"/>
<path d="M-24.8,901.5 L-20.4,900.8 L-21.2,894.4 L-25.3,894.8 L-24.8,901.5 Z" fill="#E3DED2" stroke="#C9C3B2" stroke-width="0.7"/>
<path d="M890.6,317.1 L894.5,316.0 L889.2,302.8 L887.3,304.0 L890.6,317.1 Z" fill="#E3DED2" stroke="#C9C3B2" stroke-width="0.7"/>
<path d="M297.1,781.7 L301.7,780.9 L301.2,774.5 L296.2,775.3 L297.1,781.7 Z" fill="#E3DED2" stroke="#C9C3B2" stroke-width="0.7"/>
<path d="M-22.3,361.5 L11.9,358.1 L12.4,364.5 L71.4,358.5 L71.4,359.2 L101.6,356.8 L101.4,354.7 L99.2,337.4 L-0.8,347.6 L-0.3,350.9 L-22.9,353.2 L-22.3,361.5 Z" fill="#E3DED2" stroke="#C9C3B2" stroke-width="0.7"/>
<path d="M495.7,518.6 L497.1,522.7 L501.0,521.2 L499.3,517.4 L495.7,518.6 Z" fill="#E3DED2" stroke="#C9C3B2" stroke-width="0.7"/>
<path d="M154.9,551.3 L154.0,526.8 L113.0,533.2 L115.7,556.9 L154.9,551.3 Z" fill="#E3DED2" stroke="#C9C3B2" stroke-width="0.7"/>
<path d="M489.7,433.3 L491.6,438.1 L503.7,433.3 L501.8,428.4 L489.7,433.3 Z" fill="#E3DED2" stroke="#C9C3B2" stroke-width="0.7"/>
<path d="M443.9,278.0 L453.0,274.3 L444.2,252.9 L435.1,256.6 L443.9,278.0 Z" fill="#E3DED2" stroke="#C9C3B2" stroke-width="0.7"/>
<path d="M132.0,1018.1 L135.6,1029.0 L140.0,1027.1 L136.1,1016.6 L132.0,1018.1 Z" fill="#E3DED2" stroke="#C9C3B2" stroke-width="0.7"/>
<path d="M758.1,353.6 L761.4,367.1 L826.1,342.7 L822.5,328.4 L758.1,353.6 Z" fill="#E3DED2" stroke="#C9C3B2" stroke-width="0.7"/>
<path d="M286.0,1097.7 L286.6,1099.6 L292.7,1097.7 L292.1,1095.5 L286.0,1097.7 Z" fill="#E3DED2" stroke="#C9C3B2" stroke-width="0.7"/>
<path d="M-28.6,717.4 L-29.7,709.9 L-33.3,710.6 L-32.2,717.8 L-28.6,717.4 Z" fill="#E3DED2" stroke="#C9C3B2" stroke-width="0.7"/>
<path d="M-0.3,869.2 L0.0,873.7 L6.4,873.4 L6.4,868.8 L-0.3,869.2 Z" fill="#E3DED2" stroke="#C9C3B2" stroke-width="0.7"/>
<path d="M94.5,560.3 L93.7,554.7 L84.9,556.2 L85.7,561.0 L94.5,560.3 Z" fill="#E3DED2" stroke="#C9C3B2" stroke-width="0.7"/>
<path d="M105.0,784.3 L88.2,786.9 L91.2,806.8 L100.3,805.7 L105.0,784.3 Z" fill="#E3DED2" stroke="#C9C3B2" stroke-width="0.7"/>
<path d="M529.3,603.5 L550.8,594.9 L545.6,581.7 L523.8,590.4 L529.3,603.5 Z" fill="#E3DED2" stroke="#C9C3B2" stroke-width="0.7"/>
<path d="M605.4,786.5 L601.3,788.0 L606.2,798.2 L609.5,796.7 L605.4,786.5 Z" fill="#E3DED2" stroke="#C9C3B2" stroke-width="0.7"/>
<path d="M151.3,503.9 L148.5,480.2 L117.7,484.4 L120.7,508.4 L151.3,503.9 Z" fill="#E3DED2" stroke="#C9C3B2" stroke-width="0.7"/>
<path d="M509.2,426.1 L510.9,430.6 L521.6,426.5 L520.0,421.2 L509.2,426.1 Z" fill="#E3DED2" stroke="#C9C3B2" stroke-width="0.7"/>
<path d="M637.6,594.5 L636.3,590.7 L629.9,593.4 L631.0,596.7 L637.6,594.5 Z" fill="#E3DED2" stroke="#C9C3B2" stroke-width="0.7"/>
<path d="M81.6,587.0 L80.5,577.6 L71.9,579.1 L73.3,588.1 L81.6,587.0 Z" fill="#E3DED2" stroke="#C9C3B2" stroke-width="0.7"/>
<path d="M127.3,829.0 L126.5,833.5 L133.9,835.0 L134.8,830.5 L127.3,829.0 Z" fill="#E3DED2" stroke="#C9C3B2" stroke-width="0.7"/>
<path d="M-15.7,837.7 L-14.6,843.7 L-4.9,842.5 L-5.8,835.8 L-15.7,837.7 Z" fill="#E3DED2" stroke="#C9C3B2" stroke-width="0.7"/>
<path d="M830.8,926.0 L830.0,923.0 L821.2,925.2 L822.0,928.6 L830.8,926.0 Z" fill="#E3DED2" stroke="#C9C3B2" stroke-width="0.7"/>
<path d="M354.1,313.4 L362.6,310.0 L345.0,266.8 L336.2,270.1 L348.2,299.1 L354.1,313.4 Z" fill="#E3DED2" stroke="#C9C3B2" stroke-width="0.7"/>
<path d="M650.9,348.7 L652.0,351.7 L747.9,314.9 L747.0,311.5 L650.9,348.7 Z" fill="#E3DED2" stroke="#C9C3B2" stroke-width="0.7"/>
<path d="M52.4,759.1 L48.5,732.4 L21.8,736.6 L25.9,763.6 L52.4,759.1 Z" fill="#E3DED2" stroke="#C9C3B2" stroke-width="0.7"/>
<path d="M63.7,143.5 L52.9,147.6 L56.0,155.1 L66.4,150.6 L63.7,143.5 Z" fill="#E3DED2" stroke="#C9C3B2" stroke-width="0.7"/>
<path d="M596.3,391.9 L585.8,396.0 L588.0,400.2 L598.2,396.4 L596.3,391.9 Z" fill="#E3DED2" stroke="#C9C3B2" stroke-width="0.7"/>
<path d="M336.2,1120.7 L374.5,1226.3 L443.4,1206.7 L397.7,1096.9 L336.2,1120.7 Z" fill="#E3DED2" stroke="#C9C3B2" stroke-width="0.7"/>
<path d="M85.4,463.3 L92.3,462.6 L91.8,455.8 L78.8,457.7 L79.4,464.4 L85.4,463.3 Z" fill="#E3DED2" stroke="#C9C3B2" stroke-width="0.7"/>
<path d="M421.9,479.1 L428.7,495.9 L430.4,500.2 L440.6,504.3 L480.3,488.9 L469.3,461.4 L421.9,479.1 Z" fill="#E8B9A0" stroke="#8E241D" stroke-width="2.5"/>
<path d="M556.4,707.2 L560.2,716.6 L618.4,694.5 L614.8,685.1 L572.9,700.9 L556.4,707.2 Z" fill="#E3DED2" stroke="#C9C3B2" stroke-width="0.7"/>
<path d="M631.9,429.9 L637.6,427.6 L647.6,423.5 L629.9,380.6 L613.9,387.0 L631.9,429.9 Z" fill="#E3DED2" stroke="#C9C3B2" stroke-width="0.7"/>
<path d="M152.4,576.4 L154.9,551.3 L115.7,556.9 L109.4,558.0 L113.3,581.3 L152.4,576.4 Z" fill="#E3DED2" stroke="#C9C3B2" stroke-width="0.7"/>
<path d="M598.0,502.8 L732.2,451.3 L730.8,445.7 L728.8,445.3 L595.8,496.4 L598.0,502.8 Z" fill="#E3DED2" stroke="#C9C3B2" stroke-width="0.7"/>
<path d="M849.0,691.1 L772.7,721.5 L787.3,757.6 L863.6,727.9 L860.8,721.1 L858.1,714.4 L849.0,691.1 Z" fill="#E3DED2" stroke="#C9C3B2" stroke-width="0.7"/>
<path d="M305.1,1129.7 L299.0,1131.6 L309.5,1156.7 L315.0,1154.9 L305.1,1129.7 Z" fill="#E3DED2" stroke="#C9C3B2" stroke-width="0.7"/>
<path d="M64.2,466.3 L73.0,465.2 L70.3,443.4 L69.5,438.5 L60.6,439.6 L64.2,466.3 Z" fill="#E3DED2" stroke="#C9C3B2" stroke-width="0.7"/>
<path d="M268.4,62.3 L319.4,49.9 L305.1,-6.1 L290.4,-2.7 L245.8,7.8 L268.4,62.3 Z" fill="#E3DED2" stroke="#C9C3B2" stroke-width="0.7"/>
<path d="M281.4,829.8 L284.9,863.6 L290.2,863.2 L286.3,829.4 L285.2,829.4 L281.4,829.8 Z" fill="#E3DED2" stroke="#C9C3B2" stroke-width="0.7"/>
<path d="M522.7,541.1 L538.2,534.7 L535.4,528.0 L530.5,529.5 L520.0,534.0 L522.7,541.1 Z" fill="#E3DED2" stroke="#C9C3B2" stroke-width="0.7"/>
<path d="M765.2,862.1 L741.8,864.0 L744.0,903.8 L777.9,895.5 L774.0,884.3 L765.2,862.1 Z" fill="#E3DED2" stroke="#C9C3B2" stroke-width="0.7"/>
<path d="M-6.6,732.8 L-11.8,733.5 L-39.4,738.4 L-33.6,773.0 L-1.6,767.4 L-6.6,732.8 Z" fill="#E3DED2" stroke="#C9C3B2" stroke-width="0.7"/>
<path d="M61.2,178.4 L75.8,172.8 L66.4,150.6 L56.0,155.1 L52.1,156.6 L61.2,178.4 Z" fill="#E3DED2" stroke="#C9C3B2" stroke-width="0.7"/>
<path d="M273.9,1066.9 L283.8,1092.1 L289.9,1089.8 L280.0,1064.7 L274.5,1066.5 L273.9,1066.9 Z" fill="#E3DED2" stroke="#C9C3B2" stroke-width="0.7"/>
<path d="M469.8,594.1 L517.5,575.7 L508.4,553.5 L505.9,547.9 L458.0,566.3 L465.6,584.1 L469.8,594.1 Z" fill="#E3DED2" stroke="#C9C3B2" stroke-width="0.7"/>
<path d="M28.9,59.3 L-16.5,77.7 L-17.3,78.8 L4.5,130.5 L51.0,111.9 L30.6,63.4 L28.9,59.3 Z" fill="#E3DED2" stroke="#C9C3B2" stroke-width="0.7"/>
<path d="M286.6,696.3 L291.3,696.3 L292.9,696.3 L269.8,643.3 L264.3,643.3 L275.2,669.2 L286.6,696.3 Z" fill="#E3DED2" stroke="#C9C3B2" stroke-width="0.7"/>
<path d="M898.6,1016.6 L906.6,1043.2 L909.6,1055.3 L935.0,1045.9 L919.8,1010.9 L898.6,1016.6 Z" fill="#E3DED2" stroke="#C9C3B2" stroke-width="0.7"/>
<path d="M48.5,792.9 L52.4,823.0 L89.3,817.0 L84.6,787.3 L75.8,788.4 L48.5,792.9 Z" fill="#E3DED2" stroke="#C9C3B2" stroke-width="0.7"/>
<path d="M124.6,720.0 L109.4,722.6 L110.8,731.7 L125.1,730.2 L127.3,719.6 L124.6,720.0 Z" fill="#E3DED2" stroke="#C9C3B2" stroke-width="0.7"/>
<path d="M57.3,639.2 L67.2,705.4 L75.0,704.2 L65.0,638.5 L57.3,639.2 Z" fill="#E3DED2" stroke="#C9C3B2" stroke-width="0.7"/>
<path d="M556.9,519.7 L546.4,523.5 L549.5,530.6 L551.7,529.8 L559.9,526.5 L556.9,519.7 Z" fill="#E3DED2" stroke="#C9C3B2" stroke-width="0.7"/>
<path d="M104.2,1156.0 L107.5,1142.5 L105.3,1142.1 L102.2,1141.3 L98.9,1154.9 L104.2,1156.0 Z" fill="#E3DED2" stroke="#C9C3B2" stroke-width="0.7"/>
<path d="M322.1,95.0 L323.5,102.5 L463.8,70.9 L461.8,61.2 L321.0,93.1 L322.1,95.0 Z" fill="#E3DED2" stroke="#C9C3B2" stroke-width="0.7"/>
<path d="M105.8,460.7 L100.9,461.4 L97.6,461.8 L98.4,466.3 L106.7,465.2 L105.8,460.7 Z" fill="#E3DED2" stroke="#C9C3B2" stroke-width="0.7"/>
<path d="M183.5,786.2 L176.9,786.9 L179.1,809.1 L186.0,808.0 L184.6,795.9 L183.5,786.2 Z" fill="#E3DED2" stroke="#C9C3B2" stroke-width="0.7"/>
<path d="M594.7,374.2 L596.6,378.8 L598.2,382.9 L602.4,381.0 L598.8,372.7 L594.7,374.2 Z" fill="#E3DED2" stroke="#C9C3B2" stroke-width="0.7"/>
<path d="M187.3,523.3 L217.7,516.3 L212.4,503.2 L211.9,502.0 L205.0,486.6 L187.7,489.4 L187.3,523.3 Z" fill="#E3DED2" stroke="#C9C3B2" stroke-width="0.7"/>
<path d="M642.6,1011.3 L647.3,1022.2 L660.2,1018.8 L658.3,1012.0 L656.9,1007.5 L642.6,1011.3 Z" fill="#E3DED2" stroke="#C9C3B2" stroke-width="0.7"/>
<path d="M144.4,627.2 L148.5,602.0 L106.4,607.6 L108.0,621.2 L109.4,632.1 L144.4,627.2 Z" fill="#E3DED2" stroke="#C9C3B2" stroke-width="0.7"/>
<path d="M777.9,895.5 L744.0,903.8 L742.1,904.6 L744.3,911.7 L742.9,915.8 L780.1,903.8 L777.9,895.5 Z" fill="#E3DED2" stroke="#C9C3B2" stroke-width="0.7"/>
<path d="M574.0,553.9 L562.7,525.3 L559.9,526.5 L551.7,529.8 L554.7,538.5 L562.7,558.0 L574.0,553.9 Z" fill="#E3DED2" stroke="#C9C3B2" stroke-width="0.7"/>
<path d="M181.1,830.5 L133.9,835.0 L127.3,864.3 L125.1,875.6 L138.3,874.5 L185.2,870.0 L181.1,830.5 Z" fill="#E3DED2" stroke="#C9C3B2" stroke-width="0.7"/>
<path d="M508.4,553.5 L517.2,549.8 L515.3,543.8 L513.4,544.5 L507.3,547.1 L505.9,547.9 L508.4,553.5 Z" fill="#E3DED2" stroke="#C9C3B2" stroke-width="0.7"/>
<path d="M-36.6,690.7 L-33.3,710.6 L-29.7,709.9 L-27.5,709.5 L-30.6,691.8 L-35.3,690.3 L-36.6,690.7 Z" fill="#E3DED2" stroke="#C9C3B2" stroke-width="0.7"/>
<path d="M773.2,762.5 L755.9,769.6 L758.9,777.5 L740.1,784.3 L743.7,794.4 L780.7,780.9 L773.2,762.5 Z" fill="#E3DED2" stroke="#C9C3B2" stroke-width="0.7"/>
<path d="M189.3,717.0 L190.1,727.2 L195.4,726.8 L194.8,722.6 L194.8,718.1 L194.6,716.6 L189.3,717.0 Z" fill="#E3DED2" stroke="#C9C3B2" stroke-width="0.7"/>
<path d="M615.3,343.8 L623.3,363.3 L652.0,351.7 L650.9,348.7 L644.5,332.5 L636.5,335.5 L615.3,343.8 Z" fill="#E3DED2" stroke="#C9C3B2" stroke-width="0.7"/>
<path d="M799.4,791.4 L799.7,792.2 L822.0,783.5 L821.4,782.4 L871.9,762.5 L876.3,761.0 L869.7,743.7 L843.5,753.8 L818.1,763.6 L792.2,774.5 L799.4,791.4 Z" fill="#E3DED2" stroke="#C9C3B2" stroke-width="0.7"/>
<path d="M415.0,288.9 L423.3,286.3 L443.9,278.0 L435.1,256.6 L407.8,267.1 L406.7,267.9 L415.0,288.9 Z" fill="#E3DED2" stroke="#C9C3B2" stroke-width="0.7"/>
<path d="M-42.4,12.3 L-31.7,39.0 L-16.8,76.6 L-16.5,77.7 L28.9,59.3 L27.2,55.0 L1.9,-6.1 L-42.4,12.3 Z" fill="#E3DED2" stroke="#C9C3B2" stroke-width="0.7"/>
<path d="M-8.5,720.8 L-18.2,715.5 L-19.5,718.1 L-14.3,721.1 L-11.8,733.5 L-6.6,732.8 L-8.5,720.8 Z" fill="#E3DED2" stroke="#C9C3B2" stroke-width="0.7"/>
<path d="M777.9,895.5 L780.1,903.8 L742.9,915.8 L741.8,920.7 L785.6,906.1 L782.0,894.0 L777.9,895.5 Z" fill="#E3DED2" stroke="#C9C3B2" stroke-width="0.7"/>
<path d="M481.4,621.9 L523.6,605.8 L529.3,603.5 L523.8,590.4 L517.5,575.7 L469.8,594.1 L476.2,609.4 L481.4,621.9 Z" fill="#E3DED2" stroke="#C9C3B2" stroke-width="0.7"/>
<path d="M609.5,807.6 L616.4,804.2 L607.9,785.0 L605.4,786.5 L609.5,796.7 L606.2,798.2 L609.5,807.6 Z" fill="#E3DED2" stroke="#C9C3B2" stroke-width="0.7"/>
<path d="M362.6,310.0 L370.6,307.0 L401.2,294.6 L390.5,267.9 L383.6,251.4 L345.0,266.8 L362.6,310.0 Z" fill="#E3DED2" stroke="#C9C3B2" stroke-width="0.7"/>
<path d="M835.2,484.4 L813.2,492.6 L815.1,494.9 L817.3,496.0 L835.8,488.9 L837.1,487.0 L835.2,484.4 Z" fill="#E3DED2" stroke="#C9C3B2" stroke-width="0.7"/>
<path d="M513.4,544.5 L515.3,543.8 L522.7,541.1 L520.0,534.0 L514.7,522.3 L505.9,525.7 L513.4,544.5 Z" fill="#E3DED2" stroke="#C9C3B2" stroke-width="0.7"/>
<path d="M808.2,641.5 L805.2,634.3 L750.6,655.4 L754.2,664.0 L756.7,664.0 L806.8,644.5 L808.2,641.5 Z" fill="#E3DED2" stroke="#C9C3B2" stroke-width="0.7"/>
<path d="M604.0,640.3 L642.3,625.7 L630.5,597.1 L621.7,600.5 L615.0,603.1 L592.2,612.2 L604.0,640.3 Z" fill="#E3DED2" stroke="#C9C3B2" stroke-width="0.7"/>
<path d="M240.3,1186.1 L205.3,1093.2 L176.1,1103.4 L211.9,1197.0 L235.9,1187.9 L235.9,1187.6 L240.3,1186.1 Z" fill="#E3DED2" stroke="#C9C3B2" stroke-width="0.7"/>
<path d="M809.9,931.6 L811.2,931.2 L822.0,928.6 L821.2,925.2 L819.5,919.2 L807.9,922.2 L809.9,931.6 Z" fill="#E3DED2" stroke="#C9C3B2" stroke-width="0.7"/>
<path d="M372.3,889.5 L343.6,892.2 L318.6,894.0 L369.0,1016.9 L416.4,998.5 L417.2,998.2 L413.5,989.3 L398.7,953.4 L386.2,923.2 L372.3,889.5 Z" fill="#E3DED2" stroke="#C9C3B2" stroke-width="0.7"/>
<path d="M374.2,231.8 L355.5,185.2 L307.5,196.9 L305.9,197.6 L317.2,225.0 L324.9,243.5 L336.2,240.8 L374.2,231.8 Z" fill="#E3DED2" stroke="#C9C3B2" stroke-width="0.7"/>
<path d="M230.7,701.2 L235.6,781.3 L248.3,779.8 L254.3,779.4 L249.1,699.7 L244.7,699.7 L230.7,701.2 Z" fill="#E3DED2" stroke="#C9C3B2" stroke-width="0.7"/>
<path d="M185.2,829.8 L181.1,830.5 L185.2,870.0 L189.3,869.6 L188.8,861.3 L187.9,850.8 L185.2,829.8 Z" fill="#E3DED2" stroke="#C9C3B2" stroke-width="0.7"/>
<path d="M902.4,856.4 L892.5,859.8 L894.7,865.8 L889.5,874.9 L896.7,879.7 L908.0,876.0 L902.4,856.4 Z" fill="#E3DED2" stroke="#C9C3B2" stroke-width="0.7"/>
<path d="M68.4,866.6 L69.5,888.4 L87.4,887.6 L91.5,867.0 L91.8,866.2 L89.8,866.2 L68.4,866.6 Z" fill="#E3DED2" stroke="#C9C3B2" stroke-width="0.7"/>
<path d="M521.9,508.4 L510.9,512.6 L514.7,522.3 L520.0,534.0 L530.5,529.5 L522.5,509.9 L521.9,508.4 Z" fill="#E3DED2" stroke="#C9C3B2" stroke-width="0.7"/>
<path d="M83.2,543.0 L82.1,537.4 L62.8,540.4 L64.2,548.3 L76.3,546.4 L75.8,544.1 L83.2,543.0 Z" fill="#E3DED2" stroke="#C9C3B2" stroke-width="0.7"/>
<path d="M416.4,998.5 L421.4,1010.6 L431.3,1034.6 L430.4,1035.0 L433.7,1042.8 L475.2,1143.7 L490.5,1180.8 L495.7,1178.5 L425.7,1008.8 L420.8,997.0 L417.2,998.2 L416.4,998.5 Z" fill="#E3DED2" stroke="#C9C3B2" stroke-width="0.7"/>
<path d="M822.5,328.4 L887.3,304.0 L865.0,211.5 L863.0,205.5 L858.4,193.5 L792.5,210.0 L822.5,328.4 Z" fill="#E3DED2" stroke="#C9C3B2" stroke-width="0.7"/>
<path d="M89.8,866.2 L91.8,866.2 L91.5,867.0 L96.5,867.0 L97.8,859.5 L90.1,859.8 L89.8,866.2 Z" fill="#E3DED2" stroke="#C9C3B2" stroke-width="0.7"/>
<path d="M588.6,540.0 L579.8,518.9 L576.2,520.1 L562.7,525.3 L574.0,553.9 L591.3,546.8 L588.6,540.0 Z" fill="#E3DED2" stroke="#C9C3B2" stroke-width="0.7"/>
<path d="M160.1,763.6 L161.2,777.5 L193.7,774.5 L192.6,761.0 L192.6,760.2 L191.5,760.2 L160.1,763.6 Z" fill="#E3DED2" stroke="#C9C3B2" stroke-width="0.7"/>
<path d="M1216.3,477.2 L1208.9,456.6 L1203.3,443.4 L1197.8,431.4 L1184.6,436.3 L1170.8,401.7 L1056.8,446.4 L1059.0,452.0 L986.8,479.9 L956.7,402.1 L1019.8,378.0 L1012.9,361.5 L1005.8,346.4 L965.3,361.8 L964.4,360.0 L897.8,385.9 L903.5,400.6 L888.7,406.2 L882.6,392.3 L880.1,391.2 L788.4,426.9 L787.0,429.1 L792.5,444.2 L746.2,462.2 L737.7,465.6 L732.2,451.3 L598.0,502.8 L611.2,531.3 L611.7,532.9 L618.6,530.2 L622.5,538.1 L643.7,529.8 L652.2,551.6 L638.5,556.9 L667.4,631.3 L603.2,657.3 L614.8,685.1 L618.4,694.5 L621.9,703.9 L622.5,705.4 L750.6,655.4 L805.2,634.3 L756.7,514.1 L765.2,510.7 L813.2,492.6 L835.2,484.4 L841.8,481.7 L926.4,449.8 L944.6,495.6 L939.6,497.9 L930.8,501.3 L954.8,562.5 L962.2,559.2 L965.5,567.4 L991.2,557.7 L993.7,563.7 L1081.0,531.0 L1071.9,508.0 L1065.8,493.0 L1061.4,481.0 L1059.8,482.5 L1055.4,470.8 L1065.6,467.1 L1124.8,444.5 L1130.6,457.7 L1119.0,462.2 L1122.6,470.1 L1129.0,485.9 L1137.8,507.7 L1216.3,477.2 Z" fill="#E3DED2" stroke="#C9C3B2" stroke-width="0.7"/>
<path d="M154.0,526.8 L151.3,503.9 L120.7,508.4 L110.2,509.9 L100.0,511.4 L103.6,534.4 L113.0,533.2 L154.0,526.8 Z" fill="#E3DED2" stroke="#C9C3B2" stroke-width="0.7"/>
<path d="M819.5,882.0 L807.7,885.8 L809.6,891.4 L804.4,901.9 L811.2,906.1 L816.2,898.2 L821.4,887.6 L819.5,882.0 Z" fill="#E3DED2" stroke="#C9C3B2" stroke-width="0.7"/>
<path d="M264.3,643.3 L259.3,631.8 L254.3,620.4 L248.8,622.3 L248.0,622.7 L203.1,623.4 L179.1,623.8 L174.4,645.2 L264.3,643.3 Z" fill="#E3DED2" stroke="#C9C3B2" stroke-width="0.7"/>
<path d="M401.2,294.6 L402.9,293.8 L415.0,288.9 L406.7,267.9 L407.8,267.1 L405.9,261.9 L390.5,267.9 L401.2,294.6 Z" fill="#E3DED2" stroke="#C9C3B2" stroke-width="0.7"/>
<path d="M880.4,863.6 L868.6,867.0 L870.5,873.4 L865.2,882.4 L872.4,886.9 L877.1,879.0 L882.1,868.5 L880.4,863.6 Z" fill="#E3DED2" stroke="#C9C3B2" stroke-width="0.7"/>
<path d="M642.3,625.7 L649.8,623.1 L649.5,621.9 L639.8,599.0 L637.6,594.5 L631.0,596.7 L630.5,597.1 L642.3,625.7 Z" fill="#E3DED2" stroke="#C9C3B2" stroke-width="0.7"/>
<path d="M831.9,878.6 L833.8,883.9 L828.3,894.0 L835.8,898.9 L840.7,890.3 L846.2,880.1 L844.3,874.9 L831.9,878.6 Z" fill="#E3DED2" stroke="#C9C3B2" stroke-width="0.7"/>
<path d="M586.7,355.1 L594.7,374.2 L598.8,372.7 L620.8,364.1 L623.3,363.3 L615.3,343.8 L589.1,354.0 L586.7,355.1 Z" fill="#E3DED2" stroke="#C9C3B2" stroke-width="0.7"/>
<path d="M844.3,874.9 L846.2,880.1 L840.7,890.3 L848.7,894.8 L853.4,886.1 L858.4,876.7 L856.2,871.1 L844.3,874.9 Z" fill="#E3DED2" stroke="#C9C3B2" stroke-width="0.7"/>
<path d="M102.2,632.8 L112.2,698.2 L124.3,696.3 L131.2,695.6 L128.7,678.3 L134.5,677.2 L136.7,667.4 L144.4,627.2 L109.4,632.1 L102.2,632.8 Z" fill="#E3DED2" stroke="#C9C3B2" stroke-width="0.7"/>
<path d="M647.6,423.5 L676.2,412.6 L672.4,402.8 L671.8,402.4 L658.0,366.7 L629.1,378.0 L629.9,380.6 L647.6,423.5 Z" fill="#E3DED2" stroke="#C9C3B2" stroke-width="0.7"/>
<path d="M467.4,457.3 L469.3,461.4 L480.3,488.9 L503.4,479.9 L499.0,469.3 L490.2,447.9 L472.3,455.1 L467.4,457.3 Z" fill="#E3DED2" stroke="#C9C3B2" stroke-width="0.7"/>
<path d="M241.9,1079.3 L240.0,1074.1 L238.4,1069.2 L207.2,1080.4 L209.2,1085.0 L211.1,1090.2 L221.6,1086.5 L241.9,1079.3 Z" fill="#E3DED2" stroke="#C9C3B2" stroke-width="0.7"/>
<path d="M785.6,938.0 L783.1,929.4 L773.8,932.0 L774.6,936.1 L776.0,940.6 L776.2,940.6 L784.5,938.4 L785.6,938.0 Z" fill="#E3DED2" stroke="#C9C3B2" stroke-width="0.7"/>
<path d="M458.0,566.3 L505.9,547.9 L507.3,547.1 L497.1,522.7 L495.7,518.6 L453.8,535.1 L449.2,544.1 L455.0,558.7 L458.0,566.3 Z" fill="#E3DED2" stroke="#C9C3B2" stroke-width="0.7"/>
<path d="M892.5,859.8 L880.4,863.6 L882.1,868.5 L877.1,879.0 L884.8,883.1 L889.5,874.9 L894.7,865.8 L892.5,859.8 Z" fill="#E3DED2" stroke="#C9C3B2" stroke-width="0.7"/>
<path d="M-51.0,623.8 L-46.6,653.1 L-44.9,664.0 L-47.4,664.4 L-44.6,683.2 L-37.5,682.1 L-46.6,623.4 L-51.0,623.8 Z" fill="#E3DED2" stroke="#C9C3B2" stroke-width="0.7"/>
<path d="M190.1,869.2 L193.2,897.0 L196.5,897.0 L196.5,893.3 L195.7,880.9 L197.3,880.9 L195.9,869.2 L190.1,869.2 Z" fill="#E3DED2" stroke="#C9C3B2" stroke-width="0.7"/>
<path d="M939.6,497.9 L944.6,495.6 L926.4,449.8 L841.8,481.7 L846.2,490.0 L848.2,490.4 L925.3,460.3 L939.6,497.9 Z" fill="#E3DED2" stroke="#C9C3B2" stroke-width="0.7"/>
<path d="M157.9,730.9 L158.7,741.8 L160.1,763.6 L191.5,760.2 L189.3,727.9 L157.9,730.9 Z" fill="#E3DED2" stroke="#C9C3B2" stroke-width="0.7"/>
<path d="M868.6,867.0 L856.2,871.1 L858.4,876.7 L853.4,886.1 L860.3,891.0 L865.2,882.4 L870.5,873.4 L868.6,867.0 Z" fill="#E3DED2" stroke="#C9C3B2" stroke-width="0.7"/>
<path d="M18.2,713.3 L21.8,736.6 L48.5,732.4 L70.8,729.0 L67.2,705.4 L18.2,713.3 Z" fill="#E3DED2" stroke="#C9C3B2" stroke-width="0.7"/>
<path d="M641.8,832.0 L646.5,830.1 L672.1,821.1 L668.2,812.1 L654.7,817.4 L652.2,811.0 L636.3,817.7 L641.8,832.0 Z" fill="#E3DED2" stroke="#C9C3B2" stroke-width="0.7"/>
<path d="M463.5,445.7 L462.7,445.7 L467.4,457.3 L472.3,455.1 L470.7,451.7 L488.6,444.2 L485.3,437.0 L463.5,445.7 Z" fill="#E3DED2" stroke="#C9C3B2" stroke-width="0.7"/>
<path d="M79.6,514.1 L76.9,497.1 L84.6,495.6 L83.5,489.6 L68.1,491.9 L68.1,492.3 L71.7,515.6 L79.6,514.1 Z" fill="#E3DED2" stroke="#C9C3B2" stroke-width="0.7"/>
<path d="M807.7,885.8 L793.1,890.3 L795.3,895.9 L789.5,906.1 L799.7,909.8 L804.4,901.9 L809.6,891.4 L807.7,885.8 Z" fill="#E3DED2" stroke="#C9C3B2" stroke-width="0.7"/>
<path d="M61.5,138.6 L42.2,146.1 L57.1,180.3 L61.2,178.4 L52.1,156.6 L56.0,155.1 L52.9,147.6 L63.7,143.5 L61.5,138.6 Z" fill="#E3DED2" stroke="#C9C3B2" stroke-width="0.7"/>
<path d="M105.6,1038.7 L106.5,1038.4 L135.6,1029.0 L132.0,1018.1 L122.6,991.0 L98.7,998.5 L95.6,1011.3 L105.6,1038.7 Z" fill="#E3DED2" stroke="#C9C3B2" stroke-width="0.7"/>
<path d="M652.0,351.7 L654.7,358.5 L656.1,361.8 L658.0,366.7 L671.8,402.4 L761.4,367.1 L758.1,353.6 L747.9,314.9 L652.0,351.7 Z" fill="#E3DED2" stroke="#C9C3B2" stroke-width="0.7"/>
<path d="M26.7,495.6 L67.8,490.0 L64.2,466.3 L60.6,439.6 L69.5,438.5 L77.7,437.4 L73.9,388.9 L12.1,394.5 L26.7,495.6 Z" fill="#E3DED2" stroke="#C9C3B2" stroke-width="0.7"/>
<path d="M820.6,881.6 L819.5,882.0 L821.4,887.6 L816.2,898.2 L823.4,902.7 L828.3,894.0 L833.8,883.9 L831.9,878.6 L820.6,881.6 Z" fill="#E3DED2" stroke="#C9C3B2" stroke-width="0.7"/>
<path d="M410.9,452.0 L416.8,466.7 L421.9,479.1 L469.3,461.4 L467.4,457.3 L462.7,445.7 L463.5,445.7 L458.8,433.3 L426.3,446.0 L410.9,452.0 Z" fill="#D9D3C4" stroke="#8A8474" stroke-width="1.2"/>
<path d="M517.2,549.8 L518.6,552.8 L554.7,538.5 L551.7,529.8 L549.5,530.6 L538.2,534.7 L522.7,541.1 L515.3,543.8 L517.2,549.8 Z" fill="#E3DED2" stroke="#C9C3B2" stroke-width="0.7"/>
<path d="M211.4,556.5 L212.5,559.5 L232.6,551.6 L224.3,532.1 L221.6,525.5 L217.7,516.3 L187.3,523.3 L186.7,564.8 L191.5,564.8 L211.4,556.5 Z" fill="#D9D3C4" stroke="#8A8474" stroke-width="1.2"/>
<path d="M124.6,720.0 L131.2,695.6 L124.3,696.3 L112.2,698.2 L103.3,699.7 L105.6,711.0 L98.9,712.5 L100.6,724.2 L109.4,722.6 L124.6,720.0 Z" fill="#E3DED2" stroke="#C9C3B2" stroke-width="0.7"/>
<path d="M-3.0,573.8 L9.9,572.3 L14.3,571.6 L17.4,571.2 L34.2,568.6 L30.0,545.3 L-6.0,550.5 L-6.6,550.5 L-3.0,573.8 Z" fill="#E3DED2" stroke="#C9C3B2" stroke-width="0.7"/>
<path d="M758.6,939.1 L759.2,938.8 L760.8,944.8 L769.9,942.5 L770.5,942.1 L769.1,937.3 L768.0,933.5 L757.8,935.7 L758.6,939.1 Z" fill="#E3DED2" stroke="#C9C3B2" stroke-width="0.7"/>
<path d="M815.9,868.8 L774.0,884.3 L777.9,895.5 L782.0,894.0 L793.1,890.3 L807.7,885.8 L819.5,882.0 L820.6,881.6 L815.9,868.8 Z" fill="#E3DED2" stroke="#C9C3B2" stroke-width="0.7"/>
<path d="M189.3,869.6 L185.2,870.0 L138.3,874.5 L140.0,885.4 L147.7,885.4 L149.1,898.2 L184.4,897.3 L193.2,897.0 L190.1,869.2 L189.3,869.6 Z" fill="#E3DED2" stroke="#C9C3B2" stroke-width="0.7"/>
<path d="M-36.9,1015.4 L-34.7,1015.4 L-33.3,1015.4 L-35.5,986.1 L-36.6,965.1 L-38.0,965.1 L-39.1,965.4 L-39.4,966.6 L-36.9,1015.4 Z" fill="#E3DED2" stroke="#C9C3B2" stroke-width="0.7"/>
<path d="M1000.5,332.9 L894.2,372.7 L894.7,375.0 L897.8,385.9 L964.4,360.0 L965.3,361.8 L1005.8,346.4 L1003.0,339.7 L1000.5,332.9 Z" fill="#E3DED2" stroke="#C9C3B2" stroke-width="0.7"/>
<path d="M-26.4,886.5 L-26.4,888.4 L-3.8,887.3 L-3.8,886.9 L-4.1,880.5 L-4.7,869.2 L-11.3,869.6 L-28.6,870.0 L-26.4,886.5 Z" fill="#E3DED2" stroke="#C9C3B2" stroke-width="0.7"/>
<path d="M504.8,678.7 L513.9,675.3 L539.5,665.5 L548.9,661.8 L562.1,656.5 L551.1,628.3 L535.1,634.0 L493.0,650.1 L499.5,665.8 L504.8,678.7 Z" fill="#E3DED2" stroke="#C9C3B2" stroke-width="0.7"/>
<path d="M8.0,645.6 L18.2,713.3 L67.2,705.4 L57.3,639.2 L25.6,643.0 L21.0,643.7 L8.0,645.6 Z" fill="#E3DED2" stroke="#C9C3B2" stroke-width="0.7"/>
<path d="M-37.7,806.8 L-32.8,847.1 L-29.7,870.0 L-28.6,870.0 L-11.3,869.6 L-11.8,864.0 L-14.6,843.7 L-15.7,837.7 L-20.1,804.2 L-37.7,806.8 Z" fill="#E3DED2" stroke="#C9C3B2" stroke-width="0.7"/>
<path d="M854.5,920.0 L868.3,916.6 L879.0,913.9 L878.7,910.6 L876.5,904.2 L865.0,907.6 L864.4,905.3 L849.0,909.1 L852.3,920.7 L854.5,920.0 Z" fill="#E3DED2" stroke="#C9C3B2" stroke-width="0.7"/>
<path d="M141.6,428.4 L136.5,429.1 L128.1,430.2 L97.0,435.1 L97.3,439.3 L100.9,461.4 L105.8,460.7 L114.4,459.9 L145.2,455.4 L141.6,428.4 Z" fill="#E3DED2" stroke="#C9C3B2" stroke-width="0.7"/>
<path d="M-33.6,773.0 L-39.4,738.4 L-50.4,740.3 L-49.0,748.2 L-58.1,749.3 L-59.5,741.8 L-71.1,743.7 L-67.2,767.0 L-65.6,777.5 L-33.6,773.0 Z" fill="#E3DED2" stroke="#C9C3B2" stroke-width="0.7"/>
<path d="M630.2,838.0 L638.7,857.6 L644.3,871.9 L646.2,871.7 L670.2,870.0 L658.9,841.4 L652.0,843.7 L646.5,830.1 L641.8,832.0 L629.7,836.9 L630.2,838.0 Z" fill="#E3DED2" stroke="#C9C3B2" stroke-width="0.7"/>
<path d="M919.8,1010.9 L935.0,1045.9 L939.9,1057.5 L956.7,1051.9 L974.4,1045.1 L955.9,1001.9 L948.2,1004.2 L940.5,1006.0 L935.0,1007.2 L919.8,1010.9 Z" fill="#E3DED2" stroke="#C9C3B2" stroke-width="0.7"/>
<path d="M141.1,767.0 L139.7,774.1 L146.3,775.3 L144.4,783.5 L137.8,782.0 L135.9,790.7 L143.9,790.3 L157.4,788.8 L154.3,765.9 L141.1,767.0 Z" fill="#E3DED2" stroke="#C9C3B2" stroke-width="0.7"/>
<path d="M486.1,53.3 L486.6,55.5 L564.6,37.1 L566.0,42.0 L568.5,41.3 L593.3,35.2 L592.7,32.6 L567.7,39.0 L566.3,33.7 L486.1,53.3 Z" fill="#E3DED2" stroke="#C9C3B2" stroke-width="0.7"/>
<path d="M-90.9,815.1 L-85.1,846.7 L-77.4,889.9 L-26.4,886.5 L-28.6,870.0 L-29.7,870.0 L-43.8,870.4 L-47.4,849.3 L-54.3,809.1 L-90.9,815.1 Z" fill="#E3DED2" stroke="#C9C3B2" stroke-width="0.7"/>
<path d="M590.0,481.7 L567.9,490.8 L576.7,511.8 L579.8,518.9 L588.6,540.0 L611.2,531.3 L598.0,502.8 L595.8,496.4 L593.8,491.5 L590.0,481.7 Z" fill="#E3DED2" stroke="#C9C3B2" stroke-width="0.7"/>
<path d="M551.1,628.3 L592.2,612.2 L615.0,603.1 L612.0,596.0 L603.2,574.6 L550.8,594.9 L529.3,603.5 L523.6,605.8 L535.1,634.0 L551.1,628.3 Z" fill="#E3DED2" stroke="#C9C3B2" stroke-width="0.7"/>
<path d="M189.3,727.9 L191.5,760.2 L192.6,760.2 L192.6,761.0 L202.0,759.9 L199.5,726.8 L195.4,726.8 L190.1,727.2 L190.4,727.9 L189.3,727.9 Z" fill="#E3DED2" stroke="#C9C3B2" stroke-width="0.7"/>
<path d="M67.8,490.0 L68.1,491.9 L83.5,489.6 L80.5,469.0 L86.3,468.2 L85.4,463.3 L79.4,464.4 L73.0,465.2 L64.2,466.3 L67.8,490.0 Z" fill="#E3DED2" stroke="#C9C3B2" stroke-width="0.7"/>
<path d="M759.9,846.7 L766.0,862.1 L765.2,862.1 L774.0,884.3 L815.9,868.8 L850.4,855.7 L835.4,817.5 L759.9,846.7 Z" fill="#E3DED2" stroke="#C9C3B2" stroke-width="0.7"/>
<path d="M893.9,691.5 L907.1,686.2 L903.8,677.5 L954.5,657.6 L958.4,665.9 L971.1,661.4 L964.7,646.4 L888.1,676.4 L893.9,691.5 Z" fill="#E3DED2" stroke="#C9C3B2" stroke-width="0.7"/>
<path d="M835.4,817.5 L850.4,855.7 L901.3,836.2 L886.2,797.8 L835.4,817.5 Z" fill="#E3DED2" stroke="#C9C3B2" stroke-width="0.7"/>
<circle cx="452" cy="484" r="119" fill="none" stroke="#C0392B" stroke-width="1.6" stroke-dasharray="8 6" opacity="0.75"/>
<circle cx="462" cy="494" r="26" fill="#E67E22" opacity="0.30"/>
<circle cx="462" cy="494" r="18" fill="#D94436" opacity="0.85"/>
<text x="514" y="470" font-size="12.5" font-weight="700" text-anchor="middle" fill="#8E241D" stroke="#F4F1EA" stroke-width="3.5" paint-order="stroke">FIRE fl.3+4</text>
<text x="24" y="104" font-size="11" fill="#1273A6" font-weight="600">→ H-ROUET (off-map supply)</text>
<line x1="271.79999999999995" y1="640.0" x2="346.2" y2="640.0" stroke="#0F766E" stroke-width="1.6" stroke-dasharray="3 3"/>
<circle cx="350" cy="640" r="4" fill="#0F766E"/>
<rect x="217.79999999999998" y="627.0" width="54" height="26" rx="5" fill="#FFFFFF" stroke="#0F766E" stroke-width="2"/>
<text x="245" y="644" font-size="11.5" font-weight="700" text-anchor="middle" fill="#0F766E">CCP</text>
<text x="415" y="351" font-size="10.5" fill="#4A5160" font-weight="600">163 lobby = reception pt</text>
<circle cx="445" cy="484" r="4" fill="#2E7D32" stroke="#FFFFFF" stroke-width="1"/>
<circle cx="425" cy="473" r="4" fill="#2E7D32" stroke="#FFFFFF" stroke-width="1"/>
<circle cx="425" cy="487" r="4" fill="#2E7D32" stroke="#FFFFFF" stroke-width="1"/>
<circle cx="452" cy="504" r="4" fill="#2E7D32" stroke="#FFFFFF" stroke-width="1"/>
<circle cx="425" cy="480" r="11" fill="#E67E22" opacity="0.30"/>
<circle cx="425" cy="480" r="6.5" fill="#B45309" stroke="#FFFFFF" stroke-width="1.3"/>
<text x="425" y="483" font-size="8.5" font-weight="800" text-anchor="middle" fill="#FFFFFF">2</text>
<circle cx="442" cy="504" r="11" fill="#E67E22" opacity="0.30"/>
<circle cx="442" cy="504" r="6.5" fill="#B45309" stroke="#FFFFFF" stroke-width="1.3"/>
<text x="442" y="507" font-size="8.5" font-weight="800" text-anchor="middle" fill="#FFFFFF">3</text>
<circle cx="477" cy="480" r="11" fill="#E67E22" opacity="0.30"/>
<circle cx="477" cy="480" r="6.5" fill="#B45309" stroke="#FFFFFF" stroke-width="1.3"/>
<text x="477" y="483" font-size="8.5" font-weight="800" text-anchor="middle" fill="#FFFFFF">1</text>
<circle cx="492" cy="487" r="11" fill="#E67E22" opacity="0.30"/>
<circle cx="492" cy="487" r="6.5" fill="#B45309" stroke="#FFFFFF" stroke-width="1.3"/>
<text x="492" y="490" font-size="8.5" font-weight="800" text-anchor="middle" fill="#FFFFFF">1</text>
<rect x="634" y="102" width="226" height="106" rx="8" fill="#FFFFFF" opacity="0.94" stroke="#B45309" stroke-width="1.5"/>
<text x="646" y="122" font-size="11.5" font-weight="700" fill="#8a4a08">AWAITING RESCUE (7 pers.)</text>
<text x="646" y="140" font-size="10.5" fill="#1F2430">1 × flat 7B — inside</text>
<text x="646" y="156" font-size="10.5" fill="#1F2430">3 × flat 6C corner window</text>
<text x="646" y="172" font-size="10.5" fill="#1F2430">2 × flat 5A window</text>
<text x="646" y="188" font-size="10.5" fill="#1F2430">1 × flat 5B — inside</text>
<rect x="383.4" y="554.8" width="22" height="14" rx="3" fill="#C0392B" opacity="1" stroke="#FFFFFF" stroke-width="1.5"/>
<text x="394" y="549" font-size="10.5" font-weight="700" text-anchor="middle" fill="#1F2430" stroke="#F4F1EA" stroke-width="3" paint-order="stroke">E·LV1</text>
<rect x="381.4" y="459.59999999999997" width="26" height="14" rx="3" fill="#8E241D" opacity="1" stroke="#FFFFFF" stroke-width="1.5"/>
<line x1="385.4" y1="466.59999999999997" x2="403.4" y2="466.59999999999997" stroke="#FFFFFF" stroke-width="1.6" opacity="1"/>
<line x1="388.4" y1="463.09999999999997" x2="388.4" y2="470.09999999999997" stroke="#FFFFFF" stroke-width="1.4" opacity="1"/>
<line x1="392.4" y1="463.09999999999997" x2="392.4" y2="470.09999999999997" stroke="#FFFFFF" stroke-width="1.4" opacity="1"/>
<line x1="396.4" y1="463.09999999999997" x2="396.4" y2="470.09999999999997" stroke="#FFFFFF" stroke-width="1.4" opacity="1"/>
<line x1="400.4" y1="463.09999999999997" x2="400.4" y2="470.09999999999997" stroke="#FFFFFF" stroke-width="1.4" opacity="1"/>
<text x="394" y="454" font-size="10.5" font-weight="700" text-anchor="middle" fill="#1F2430" stroke="#F4F1EA" stroke-width="3" paint-order="stroke">L·LV</text>
<rect x="533.0" y="517.4" width="22" height="14" rx="3" fill="#C0392B" opacity="1" stroke="#FFFFFF" stroke-width="1.5"/>
<text x="544" y="511" font-size="10.5" font-weight="700" text-anchor="middle" fill="#1F2430" stroke="#F4F1EA" stroke-width="3" paint-order="stroke">E·SP1</text>
<path d="M374.0,531.4 L383.0,548.4 L365.0,548.4 Z" fill="#1A3E8C" opacity="1" stroke="#FFFFFF" stroke-width="1.5"/>
<text x="374" y="527" font-size="10.5" font-weight="700" text-anchor="middle" fill="#1F2430" stroke="#F4F1EA" stroke-width="3" paint-order="stroke">GRP·S</text>
<rect x="383.4" y="371.2" width="22" height="14" rx="3" fill="#C0392B" opacity="1" stroke="#FFFFFF" stroke-width="1.5"/>
<text x="394" y="365" font-size="10.5" font-weight="700" text-anchor="middle" fill="#1F2430" stroke="#F4F1EA" stroke-width="3" paint-order="stroke">E·ED1</text>
<rect x="344.59999999999997" y="654.8" width="18" height="18" rx="4" fill="#0F766E" opacity="1" stroke="#FFFFFF" stroke-width="1.5"/>
<path d="M349.59999999999997,663.8 h8 M353.59999999999997,659.8 v8" stroke="#FFFFFF" stroke-width="2.4" opacity="1"/>
<text x="354" y="651" font-size="10.5" font-weight="700" text-anchor="middle" fill="#1F2430" stroke="#F4F1EA" stroke-width="3" paint-order="stroke">M·SP</text>
<rect x="267.8" y="395.0" width="22" height="14" rx="3" fill="#C0392B" opacity="1" stroke="#FFFFFF" stroke-width="1.5"/>
<text x="279" y="389" font-size="10.5" font-weight="700" text-anchor="middle" fill="#1F2430" stroke="#F4F1EA" stroke-width="3" paint-order="stroke">E·CB1</text>
<rect x="456.2" y="517.4" width="26" height="14" rx="3" fill="#8E241D" opacity="1" stroke="#FFFFFF" stroke-width="1.5"/>
<line x1="460.2" y1="524.4" x2="478.2" y2="524.4" stroke="#FFFFFF" stroke-width="1.6" opacity="1"/>
<line x1="463.2" y1="520.9" x2="463.2" y2="527.9" stroke="#FFFFFF" stroke-width="1.4" opacity="1"/>
<line x1="467.2" y1="520.9" x2="467.2" y2="527.9" stroke="#FFFFFF" stroke-width="1.4" opacity="1"/>
<line x1="471.2" y1="520.9" x2="471.2" y2="527.9" stroke="#FFFFFF" stroke-width="1.4" opacity="1"/>
<line x1="475.2" y1="520.9" x2="475.2" y2="527.9" stroke="#FFFFFF" stroke-width="1.4" opacity="1"/>
<text x="469" y="511" font-size="10.5" font-weight="700" text-anchor="middle" fill="#1F2430" stroke="#F4F1EA" stroke-width="3" paint-order="stroke">L·SP</text>
<path d="M333.2,742.1999999999999 L342.2,759.1999999999999 L324.2,759.1999999999999 Z" fill="#1A3E8C" opacity="1" stroke="#FFFFFF" stroke-width="1.5"/>
<text x="333" y="738" font-size="10.5" font-weight="700" text-anchor="middle" fill="#1F2430" stroke="#F4F1EA" stroke-width="3" paint-order="stroke">COL·1</text>
<rect x="337.8" y="695.6" width="18" height="18" rx="4" fill="#0F766E" opacity="1" stroke="#FFFFFF" stroke-width="1.5"/>
<path d="M342.8,704.6 h8 M346.8,700.6 v8" stroke="#FFFFFF" stroke-width="2.4" opacity="1"/>
<text x="347" y="692" font-size="10.5" font-weight="700" text-anchor="middle" fill="#1F2430" stroke="#F4F1EA" stroke-width="3" paint-order="stroke">M·ED</text>
<path d="M489.59999999999997,538.2 L498.59999999999997,555.2 L480.59999999999997,555.2 Z" fill="#1A3E8C" opacity="1" stroke="#FFFFFF" stroke-width="1.5"/>
<text x="490" y="534" font-size="10.5" font-weight="700" text-anchor="middle" fill="#1F2430" stroke="#F4F1EA" stroke-width="3" paint-order="stroke">GRP·N</text>
<rect x="307.59999999999997" y="767.0" width="24" height="18" rx="3" fill="#1A3E8C" opacity="1" stroke="#FFFFFF" stroke-width="1.5"/>
<path d="M316.59999999999997,771.0 v10 M316.59999999999997,771.0 h8 l-3,3 3,3 h-8" stroke="#FFFFFF" stroke-width="1.4" fill="none" opacity="1"/>
<text x="320" y="763" font-size="10.5" font-weight="700" text-anchor="middle" fill="#1F2430" stroke="#F4F1EA" stroke-width="3" paint-order="stroke">PC</text>
<rect x="490.4" y="409.8" width="126" height="26" rx="5" fill="#8E241D"/>
<text x="553.4" y="428" font-size="13" font-weight="800" text-anchor="middle" fill="#FFFFFF">MAYDAY — 4th fl.</text>
<line x1="502.4" y1="435.8" x2="470.4" y2="483.8" stroke="#8E241D" stroke-width="2" stroke-dasharray="3 3"/>
<text x="313" y="895" font-size="11" letter-spacing="2" fill="#9A937F" transform="rotate(-63 313 895)">AVENUE DU PRADO</text>
<text x="639" y="535" font-size="11" letter-spacing="2" fill="#9A937F" transform="rotate(-4 639 535)">RUE BORDE</text>
<path d="M836.4,148.8 L836.4,128.8 M831.4,135.8 L836.4,128.8 L841.4,135.8" stroke="#4A5160" stroke-width="2" fill="none"/>
<text x="836" y="163" font-size="11" text-anchor="middle" fill="#4A5160">N</text>
<line x1="34.0" y1="1014.0" x2="204.0" y2="1014.0" stroke="#4A5160" stroke-width="2.5"/>
<text x="119" y="1008" font-size="11" text-anchor="middle" fill="#4A5160">50 m</text>
<rect x="0" y="0" width="884" height="82" fill="#F4F1EA"/>
<line x1="0" y1="82" x2="884" y2="82" stroke="#D8D2C2" stroke-width="1"/>
<text x="24" y="38" font-size="22" font-weight="700" fill="#1F2430">T3 — 03:12 — Full column, sectors running, MAYDAY</text>
<text x="24" y="62" font-size="12.5" fill="#4A5160">COLUMN 1 is COS; sectors ALPHA/BRAVO/MEDICAL. Ceiling collapse on 4th floor: MAYDAY, safety team committed. Extension to 4B.</text>
<rect x="0" y="1046" width="884" height="56" fill="#F4F1EA"/>
<line x1="0" y1="1046" x2="884" y2="1046" stroke="#D8D2C2" stroke-width="1"/>
<rect x="24" y="1058" width="13" height="13" rx="3" fill="#C0392B"/>
<text x="42" y="1069" font-size="11.5" fill="#1F2430">engine (FPT)</text>
<rect x="130" y="1058" width="13" height="13" rx="3" fill="#8E241D"/>
<text x="148" y="1069" font-size="11.5" fill="#1F2430">ladder (EPA)</text>
<rect x="236" y="1058" width="13" height="13" rx="3" fill="#0F766E"/>
<text x="254" y="1069" font-size="11.5" fill="#1F2430">medic / DSM</text>
<rect x="336" y="1058" width="13" height="13" rx="3" fill="#1A3E8C"/>
<text x="354" y="1069" font-size="11.5" fill="#1F2430">command / CP</text>
<rect x="442" y="1058" width="13" height="13" rx="3" fill="#5B6470"/>
<text x="460" y="1069" font-size="11.5" fill="#1F2430">logistics</text>
<rect x="529" y="1058" width="13" height="13" rx="3" fill="#B45309"/>
<text x="547" y="1069" font-size="11.5" fill="#1F2430">awaiting rescue</text>
<rect x="654" y="1058" width="13" height="13" rx="3" fill="#2E7D32"/>
<text x="672" y="1069" font-size="11.5" fill="#1F2430">resolved</text>
<rect x="735" y="1058" width="13" height="13" rx="3" fill="#1273A6"/>
<text x="753" y="1069" font-size="11.5" fill="#1F2430">hydrant</text>
<rect x="810" y="1058" width="13" height="13" rx="3" fill="#D94436"/>
<text x="828" y="1069" font-size="11.5" fill="#1F2430">fire</text>
<text x="24" y="1092" font-size="10" fill="#8A8474">Fictional training scenario (Athena demo) — faded unit = still responding — times local (CET), 14 March 2026.</text>
<text x="860" y="1092" font-size="10" text-anchor="end" fill="#8A8474">Map data © OpenStreetMap contributors (ODbL)</text>
</svg>